<svg width="455" height="288" viewBox="0 0 455 288" fill="none" xmlns="http://www.w3.org/2000/svg">
<path d="M228.623 224.555L143.551 258.592L44.85 159.89L109.515 150.536L228.623 224.555Z" fill="#FFA62B"/>
<path opacity="0.5" d="M228.623 224.555L143.551 258.592L44.85 159.89L109.515 150.536L228.623 224.555Z" fill="white"/>
<path d="M333.271 269.656C344.549 269.656 353.691 263.56 353.691 256.039C353.691 248.519 344.549 242.422 333.271 242.422C321.994 242.422 312.852 248.519 312.852 256.039C312.852 263.56 321.994 269.656 333.271 269.656Z" fill="#FFA62B"/>
<path opacity="0.5" d="M333.271 269.656C344.549 269.656 353.691 263.56 353.691 256.039C353.691 248.519 344.549 242.422 333.271 242.422C321.994 242.422 312.852 248.519 312.852 256.039C312.852 263.56 321.994 269.656 333.271 269.656Z" fill="white"/>
<path d="M401.306 287.944C415.635 287.944 427.251 280.899 427.251 272.209C427.251 263.518 415.635 256.473 401.306 256.473C386.977 256.473 375.36 263.518 375.36 272.209C375.36 280.899 386.977 287.944 401.306 287.944Z" fill="#FFA62B"/>
<path opacity="0.5" d="M401.306 287.944C415.635 287.944 427.251 280.899 427.251 272.209C427.251 263.518 415.635 256.473 401.306 256.473C386.977 256.473 375.36 263.518 375.36 272.209C375.36 280.899 386.977 287.944 401.306 287.944Z" fill="white"/>
<path d="M247.562 235.671L233.587 258.63L264.535 264.628L276.519 241.669L247.562 235.671Z" fill="white" stroke="#022B3A" stroke-linecap="round" stroke-linejoin="round"/>
<path d="M271.529 209.726L257.555 230.681L286.499 239.665L298.483 218.71L271.529 209.726Z" fill="#FFA62B"/>
<mask id="mask0_7_1355" style="mask-type:luminance" maskUnits="userSpaceOnUse" x="257" y="209" width="42" height="31">
<path d="M271.529 209.726L257.555 230.681L286.499 239.665L298.483 218.71L271.529 209.726Z" fill="white"/>
</mask>
<g mask="url(#mask0_7_1355)">
<path opacity="0.5" d="M271.529 209.726L257.555 230.681L286.499 239.665L298.483 218.71L271.529 209.726Z" fill="white" stroke="#022B3A" stroke-miterlimit="10"/>
</g>
<path d="M271.529 209.726L257.555 230.681L286.499 239.665L298.483 218.71L271.529 209.726Z" stroke="#022B3A" stroke-linecap="round" stroke-linejoin="round"/>
<path d="M302.476 249.658L277.514 256.639L287.494 272.617L316.451 265.623L302.476 249.658Z" fill="#FFA62B" stroke="#022B3A" stroke-linecap="round" stroke-linejoin="round"/>
<path d="M373.688 245.562L376.24 264.947C376.24 272.975 386.003 279.496 398.051 279.496C410.098 279.496 419.874 272.975 419.874 264.947L422.503 245.562H373.688Z" fill="#FFA62B" stroke="#022B3A" stroke-linecap="round" stroke-linejoin="round"/>
<path d="M398.076 261.859C411.573 261.859 422.515 254.562 422.515 245.562C422.515 236.561 411.573 229.265 398.076 229.265C384.579 229.265 373.637 236.561 373.637 245.562C373.637 254.562 384.579 261.859 398.076 261.859Z" fill="#FFA62B" stroke="#022B3A" stroke-linecap="round" stroke-linejoin="round"/>
<path d="M398.076 259.421C409.558 259.421 418.866 253.216 418.866 245.562C418.866 237.907 409.558 231.702 398.076 231.702C386.595 231.702 377.287 237.907 377.287 245.562C377.287 253.216 386.595 259.421 398.076 259.421Z" fill="#FFA62B" stroke="#022B3A" stroke-linecap="round" stroke-linejoin="round"/>
<path d="M398.076 259.434C409.361 259.434 418.508 254.349 418.508 248.076C418.508 241.803 409.361 236.718 398.076 236.718C386.792 236.718 377.644 241.803 377.644 248.076C377.644 254.349 386.792 259.434 398.076 259.434Z" fill="#022B3A" stroke="#022B3A" stroke-linecap="round" stroke-linejoin="round"/>
<path d="M405.44 208.36C401.892 206.076 396.507 206.28 394.35 210.504C391.159 216.656 393.444 228.052 392.295 229.647C391.147 231.243 387.739 231.702 386.144 228.282C384.549 224.862 384.549 220.306 382.494 220.076C380.439 219.846 377.708 220.765 377.249 226.01C376.789 231.256 377.708 237.177 381.358 239.908C385.008 242.639 389.105 241.733 390.292 242.882C391.478 244.03 390.292 245.817 390.292 246.991C390.292 252.096 396.966 254.648 401.19 253.372C407.342 251.547 406.665 245.383 407.571 242.882C408.477 240.38 413.506 240.138 415.331 236.271C417.156 232.404 419.887 224.632 416.007 221.671C412.127 218.71 409.167 220.076 408.72 223.266C408.189 225.8 407.331 228.254 406.167 230.566C408.899 225.168 411.579 212.317 405.44 208.36Z" fill="#FFA62B"/>
<mask id="mask1_7_1355" style="mask-type:luminance" maskUnits="userSpaceOnUse" x="377" y="206" width="41" height="48">
<path d="M405.44 208.36C401.892 206.076 396.507 206.28 394.35 210.504C391.159 216.656 393.444 228.052 392.295 229.647C391.147 231.243 387.739 231.702 386.144 228.282C384.549 224.862 384.549 220.306 382.494 220.076C380.439 219.846 377.708 220.765 377.249 226.01C376.789 231.256 377.708 237.177 381.358 239.908C385.008 242.639 389.105 241.733 390.292 242.882C391.478 244.03 390.292 245.817 390.292 246.991C390.292 252.096 396.966 254.648 401.19 253.372C407.342 251.547 406.665 245.383 407.571 242.882C408.477 240.38 413.506 240.138 415.331 236.271C417.156 232.404 419.887 224.632 416.007 221.671C412.127 218.71 409.167 220.076 408.72 223.266C408.189 225.8 407.331 228.254 406.167 230.566C408.899 225.168 411.579 212.317 405.44 208.36Z" fill="white"/>
</mask>
<g mask="url(#mask1_7_1355)">
<path opacity="0.2" d="M405.44 208.36C401.892 206.076 396.507 206.28 394.35 210.504C391.159 216.656 393.444 228.052 392.295 229.647C391.147 231.243 387.739 231.702 386.144 228.282C384.549 224.862 384.549 220.306 382.494 220.076C380.439 219.846 377.708 220.765 377.249 226.01C376.789 231.256 377.708 237.177 381.358 239.908C385.008 242.639 389.105 241.733 390.292 242.882C391.478 244.03 390.292 245.817 390.292 246.991C390.292 252.096 396.966 254.648 401.19 253.372C407.342 251.547 406.665 245.383 407.571 242.882C408.477 240.38 413.506 240.138 415.331 236.271C417.156 232.404 419.887 224.632 416.007 221.671C412.127 218.71 409.167 220.076 408.72 223.266C408.189 225.8 407.331 228.254 406.167 230.566C408.899 225.168 411.579 212.317 405.44 208.36Z" fill="#022B3A"/>
</g>
<path d="M405.44 208.36C401.892 206.076 396.507 206.28 394.35 210.504C391.159 216.656 393.444 228.052 392.295 229.647C391.147 231.243 387.739 231.702 386.144 228.282C384.549 224.862 384.549 220.306 382.494 220.076C380.439 219.846 377.708 220.765 377.249 226.01C376.789 231.256 377.708 237.177 381.358 239.908C385.008 242.639 389.105 241.733 390.292 242.882C391.478 244.03 390.292 245.817 390.292 246.991C390.292 252.096 396.966 254.648 401.19 253.372C407.342 251.547 406.665 245.383 407.571 242.882C408.477 240.38 413.506 240.138 415.331 236.271C417.156 232.404 419.887 224.632 416.007 221.671C412.127 218.71 409.167 220.076 408.72 223.266C408.189 225.8 407.331 228.254 406.167 230.566C408.899 225.168 411.579 212.317 405.44 208.36Z" stroke="#022B3A" stroke-linecap="round" stroke-linejoin="round"/>
<path d="M399.825 210.045C398.79 210.726 397.923 211.634 397.291 212.7C396.658 213.766 396.277 214.961 396.175 216.196C395.945 220.306 396.175 233.297 394.58 235.122C392.984 236.947 387.739 236.488 384.37 233.297C381.001 230.107 382.494 223.279 382.494 223.279" stroke="#022B3A" stroke-width="0.5" stroke-linecap="round" stroke-linejoin="round"/>
<path d="M383.502 237.317C384.684 238.237 386.051 238.89 387.509 239.231C391.619 240.137 394.579 238.095 395.269 240.137C395.958 242.179 394.579 249.492 394.579 249.492" stroke="#022B3A" stroke-width="0.5" stroke-linecap="round" stroke-linejoin="round"/>
<path d="M381.129 234.893C381.554 235.492 382.041 236.043 382.584 236.539" stroke="#022B3A" stroke-width="0.5" stroke-linecap="round" stroke-linejoin="round"/>
<path d="M399.748 245.753C399.979 242.354 400.004 238.945 399.825 235.543C399.417 230.439 401.79 220.956 402.377 216.668" stroke="#022B3A" stroke-width="0.5" stroke-linecap="round" stroke-linejoin="round"/>
<path d="M399.365 251.088C399.365 251.088 399.493 249.697 399.633 247.655" stroke="#022B3A" stroke-width="0.5" stroke-linecap="round" stroke-linejoin="round"/>
<path d="M415.152 228.243C415.267 227.133 415.331 226.457 415.331 226.457" stroke="#022B3A" stroke-width="0.5" stroke-linecap="round" stroke-linejoin="round"/>
<path d="M404.381 246.978C404.381 246.978 405.3 239.461 407.124 238.045C408.949 236.628 414.182 235.76 414.641 232.34C414.718 231.804 414.782 231.293 414.845 230.821" stroke="#022B3A" stroke-width="0.5" stroke-linecap="round" stroke-linejoin="round"/>
<path d="M412.14 223.497C411.662 223.817 411.281 224.263 411.038 224.785C410.795 225.306 410.699 225.885 410.762 226.457C410.855 227.824 410.564 229.189 409.922 230.398C409.279 231.607 408.31 232.612 407.125 233.298" stroke="#022B3A" stroke-width="0.5" stroke-linecap="round" stroke-linejoin="round"/>
<path d="M402.632 214.065C402.701 212.789 402.675 211.509 402.556 210.237" stroke="#022B3A" stroke-width="0.5" stroke-linecap="round" stroke-linejoin="round"/>
<path d="M315.724 209.062L319.106 244.668V248.433C319.106 253.538 326.278 257.583 335.135 257.583C343.992 257.583 351.164 253.486 351.164 248.433V244.668L354.24 208.692L315.724 209.062Z" fill="white" stroke="#022B3A" stroke-linecap="round" stroke-linejoin="round"/>
<path d="M351.317 242.741L353.091 222.003C350.705 225.717 343.584 228.384 335.161 228.384C326.291 228.384 318.876 225.397 316.898 221.377L318.915 242.613C322.182 245.332 328.218 247.169 335.161 247.169C342.103 247.169 348.05 245.421 351.317 242.741Z" fill="#FFA62B" stroke="#022B3A" stroke-linecap="round" stroke-linejoin="round"/>
<path d="M316.362 215.775V215.532L316.196 214.103L316.362 215.775Z" fill="white" stroke="#022B3A" stroke-linecap="round" stroke-linejoin="round"/>
<path d="M354.852 203.778C351.458 199.49 343.915 196.491 335.135 196.491C326.355 196.491 318.812 199.49 315.405 203.778H313.478V208.883C313.478 215.724 323.177 221.262 335.173 221.262C347.17 221.262 356.869 215.724 356.869 208.883V203.778H354.852Z" fill="#FFA62B" stroke="#022B3A" stroke-linecap="round" stroke-linejoin="round"/>
<path opacity="0.2" d="M354.852 203.778C351.458 199.49 343.915 196.491 335.135 196.491C326.355 196.491 318.812 199.49 315.405 203.778H313.478V208.883C313.478 215.724 323.177 221.262 335.173 221.262C347.17 221.262 356.869 215.724 356.869 208.883V203.778H354.852Z" fill="#022B3A"/>
<path d="M335.135 216.158C347.096 216.158 356.792 210.616 356.792 203.779C356.792 196.942 347.096 191.4 335.135 191.4C323.174 191.4 313.478 196.942 313.478 203.779C313.478 210.616 323.174 216.158 335.135 216.158Z" fill="white" stroke="#022B3A" stroke-linecap="round" stroke-linejoin="round"/>
<path d="M352.364 196.875C349.39 193.123 342.805 190.494 335.135 190.494C327.465 190.494 320.88 193.11 317.906 196.875H316.26V201.316C316.26 207.288 324.721 212.125 335.173 212.125C345.625 212.125 354.086 207.288 354.086 201.316V196.875H352.364Z" fill="#FFA62B" stroke="#022B3A" stroke-linecap="round" stroke-linejoin="round"/>
<path d="M335.135 207.684C345.581 207.684 354.048 202.845 354.048 196.875C354.048 190.905 345.581 186.065 335.135 186.065C324.69 186.065 316.222 190.905 316.222 196.875C316.222 202.845 324.69 207.684 335.135 207.684Z" fill="white" stroke="#022B3A" stroke-linecap="round" stroke-linejoin="round"/>
<path d="M144.241 91.9066C144.241 91.9066 145.721 90.9239 155.114 94.8674C164.507 98.8108 168.195 97.9558 177.333 96.3478C188.308 94.4335 197.42 92.5191 198.518 96.9603C200.419 104.618 192.736 104.528 178.915 106.009C165.094 107.489 157.079 103.265 152.638 101.287C150.594 100.447 148.615 99.4577 146.717 98.3258L144.241 91.9066Z" fill="white" stroke="#022B3A" stroke-linecap="round" stroke-linejoin="round"/>
<path d="M123.005 95.8627C123.005 95.8627 135.358 110.182 140.782 106.225C146.206 102.269 145.721 89.4434 140.782 85.4871C135.843 81.5309 122.022 88.9457 123.005 95.8627Z" fill="white" stroke="#022B3A" stroke-linecap="round" stroke-linejoin="round"/>
<path d="M160.563 56.3518C160.563 56.3518 161.061 69.6881 157.603 78.5705C154.144 87.4528 147.725 93.3872 146.742 98.3261C145.759 103.265 146.244 110.182 141.305 112.16C136.367 114.138 136.367 110.68 136.864 106.723C137.362 102.767 138.345 87.9633 138.345 87.9633L122.022 97.8284C122.022 97.8284 126.463 110.182 117.083 111.662C107.703 113.143 96.3449 98.8238 94.8645 88.0016C93.3841 77.1794 99.3057 52.9316 109.681 46.5123C120.057 40.0931 133.38 41.0885 140.31 41.0885C147.24 41.0885 157.577 45.9891 160.563 56.3518Z" fill="white" stroke="#022B3A" stroke-linecap="round" stroke-linejoin="round"/>
<path d="M121.193 42.6451C121.193 42.6451 118.64 43.9212 114.186 50.9276C109.732 57.9339 118.64 63.9703 123.426 60.7926C128.212 57.6149 124.051 50.9276 127.561 47.7371C129.58 46.0243 130.934 43.658 131.389 41.0498L121.193 42.6451Z" fill="#022B3A"/>
<path d="M106.874 52.5102C105.732 53.325 104.774 54.369 104.06 55.5755C103.346 56.782 102.891 58.1243 102.726 59.5166C102.407 63.9705 110.383 55.688 111.327 51.8594C112.272 48.0308 106.874 52.5102 106.874 52.5102Z" fill="#022B3A"/>
<path d="M135.358 42.531C134.226 44.5883 133.674 46.9148 133.761 49.2617C133.849 51.6085 134.573 53.8874 135.856 55.8545C140.297 62.7715 150.175 65.7323 154.118 60.7934C158.062 55.8545 159.555 53.3914 158.075 50.9284C156.594 48.4653 142.275 38.5747 135.358 42.531Z" fill="#FFA62B" stroke="#022B3A" stroke-linecap="round" stroke-linejoin="round"/>
<path d="M171.896 18.3337C170.021 18.5373 168.125 18.3337 166.337 17.7368C164.548 17.1399 162.91 16.1638 161.533 14.8752C156.594 10.434 152.14 0.556199 150.175 1.04116C148.21 1.52611 141.242 15.8578 141.242 15.8578C141.242 15.8578 129.386 16.8533 128.403 20.299C127.42 23.7448 132.844 40.0546 137.336 46.9716C139.431 50.0526 142.22 52.5988 145.478 54.4053C148.737 56.2119 152.374 57.2282 156.097 57.3726C162.018 57.3726 179.796 58.853 182.271 52.9187C184.747 46.9844 182.756 29.2197 182.756 29.2197C182.756 29.2197 190.669 21.32 187.21 19.8396C183.752 18.3592 171.896 18.3337 171.896 18.3337Z" fill="white" stroke="#022B3A" stroke-linecap="round" stroke-linejoin="round"/>
<path d="M169.497 43.0413C168.897 42.2628 168.322 41.4715 167.761 40.6548C166.829 39.2765 164.622 37.1707 160.372 38.5108C154.323 40.4123 150.162 46.1679 156.875 50.9282C163.192 55.4587 175.878 51.3749 169.497 43.0413Z" fill="#022B3A"/>
<path d="M141.28 15.8582C141.28 15.8582 148.197 19.8144 152.14 18.334C156.084 16.8536 153.621 0.0587919 150.175 1.04147C146.729 2.02414 140.782 9.43886 141.28 15.8582Z" fill="white" stroke="#022B3A" stroke-linecap="round" stroke-linejoin="round"/>
<path d="M187.21 19.8145C187.21 19.8145 180.829 19.3168 176.835 23.758C172.84 28.1992 175.354 32.6914 180.791 33.6358C186.228 34.5802 189.176 19.8145 187.21 19.8145Z" fill="white" stroke="#022B3A" stroke-linecap="round" stroke-linejoin="round"/>
<path d="M148.694 47.4689C148.694 47.4689 142.313 42.53 143.756 46.4735C145.198 50.4169 147.699 50.9274 150.137 49.932C152.574 48.9365 148.694 47.4689 148.694 47.4689Z" fill="#FFA62B" stroke="#022B3A" stroke-linecap="round" stroke-linejoin="round"/>
<path d="M145.172 35.0902C144.802 36.3664 143.756 37.2597 142.837 37.0045C141.918 36.7492 141.471 35.4731 141.841 34.1586C142.212 32.8441 143.258 31.989 144.177 32.2443C145.096 32.4995 145.542 33.7885 145.172 35.0902Z" fill="#022B3A"/>
<path d="M160.397 46.7417C159.211 47.4309 157.845 47.3288 157.386 46.4993C156.926 45.6697 157.462 44.4573 158.662 43.7682C159.1 43.4195 159.654 43.2495 160.213 43.2921C160.771 43.3347 161.293 43.5868 161.674 43.9979C162.133 44.8275 161.572 46.0526 160.397 46.7417Z" fill="white"/>
<path d="M116.1 78.0857C116.1 78.0857 114.62 88.9461 116.585 93.4001C118.551 97.854 120.541 114.636 124.498 115.095C128.454 115.555 126.961 106.162 126.961 104.72C126.961 103.278 127.458 87.4402 127.458 87.4402C127.458 87.4402 130.917 80.0255 132.882 76.082" fill="white"/>
<path d="M116.1 78.0857C116.1 78.0857 114.62 88.9461 116.585 93.4001C118.551 97.854 120.541 114.636 124.498 115.095C128.454 115.555 126.961 106.162 126.961 104.72C126.961 103.278 127.458 87.4402 127.458 87.4402C127.458 87.4402 130.917 80.0255 132.882 76.082" stroke="#022B3A" stroke-linecap="round" stroke-linejoin="round"/>
<path d="M99.8036 77.5873C99.8036 77.5873 113.14 73.6311 114.62 88.4478" stroke="#022B3A" stroke-linecap="round" stroke-linejoin="round"/>
<path d="M138.319 88.0014C138.319 88.0014 149.677 82.0671 150.175 69.2285" stroke="#022B3A" stroke-linecap="round" stroke-linejoin="round"/>
<path d="M1.03821 108.204L9.44837 106.303" stroke="#022B3A" stroke-linecap="round" stroke-linejoin="round"/>
<path d="M71.2294 157.836L139.047 138.603C141.202 138.375 143.371 138.898 145.185 140.084L255.538 210.594C256.008 210.898 256.374 211.339 256.585 211.857C256.796 212.375 256.843 212.946 256.719 213.492C256.595 214.038 256.306 214.533 255.892 214.909C255.478 215.285 254.958 215.525 254.402 215.596L161.597 244.502L71.2294 157.836Z" fill="#FFA62B" stroke="#022B3A" stroke-linecap="round" stroke-linejoin="round"/>
<path d="M110.881 161.894L120.491 168.517L131.593 165.378L121.996 158.767L110.881 161.894Z" fill="#022B3A"/>
<path d="M116.866 180.412L107.269 173.788L96.1534 176.928L105.763 183.551L116.866 180.412Z" fill="#022B3A"/>
<path d="M135.026 165.952L144.623 172.563L155.726 169.423L146.129 162.812L135.026 165.952Z" fill="#022B3A"/>
<path d="M146.219 173.66L155.816 180.271L166.919 177.132L157.322 170.521L146.219 173.66Z" fill="#022B3A"/>
<path d="M122.073 169.602L131.67 176.226L142.773 173.086L133.176 166.476L122.073 169.602Z" fill="#022B3A"/>
<path d="M97.9272 165.556L107.524 172.18L118.64 169.04L109.03 162.417L97.9272 165.556Z" fill="#022B3A"/>
<path d="M174.563 207.582L164.953 200.959L153.863 204.098L163.46 210.722L174.563 207.582Z" fill="#022B3A"/>
<path d="M161.597 211.244L152 204.621L140.897 207.76L150.507 214.371L161.597 211.244Z" fill="#022B3A"/>
<path d="M128.046 188.12L118.449 181.496L107.346 184.636L116.943 191.246L128.046 188.12Z" fill="#022B3A"/>
<path d="M185.742 215.29L176.145 208.679L165.042 211.806L174.639 218.429L185.742 215.29Z" fill="#022B3A"/>
<path d="M139.238 195.828L129.628 189.205L118.525 192.344L128.135 198.955L139.238 195.828Z" fill="#022B3A"/>
<path d="M150.417 203.536L140.82 196.913L129.717 200.052L139.314 206.676L150.417 203.536Z" fill="#022B3A"/>
<path d="M157.398 181.369L166.995 187.98L178.098 184.84L168.501 178.229L157.398 181.369Z" fill="#022B3A"/>
<path d="M109.12 173.265L118.717 179.888L129.82 176.749L120.223 170.138L109.12 173.265Z" fill="#022B3A"/>
<path d="M198.696 211.627L189.099 205.016L177.996 208.156L187.593 214.766L198.696 211.627Z" fill="#022B3A"/>
<path d="M165.145 188.503L155.548 181.892L144.445 185.019L154.042 191.642L165.145 188.503Z" fill="#022B3A"/>
<path d="M140.999 184.457L131.402 177.833L120.299 180.973L129.896 187.596L140.999 184.457Z" fill="#022B3A"/>
<path d="M94.4943 164.995L88.879 161.115L81.2856 163.246L85.7268 167.471L94.4943 164.995Z" fill="#022B3A"/>
<path d="M105.674 172.703L96.0767 166.08L86.9774 168.658L94.4942 175.779L94.5708 175.83L105.674 172.703Z" fill="#022B3A"/>
<path d="M133.253 177.323L142.862 183.934L153.965 180.794L144.356 174.184L133.253 177.323Z" fill="#022B3A"/>
<path d="M152.191 192.165L142.594 185.555L131.491 188.681L141.088 195.305L152.191 192.165Z" fill="#022B3A"/>
<path d="M200.47 200.256L190.873 193.646L179.77 196.785L189.367 203.396L200.47 200.256Z" fill="#022B3A"/>
<path d="M168.578 189.076L178.188 195.687L189.29 192.548L179.693 185.937L168.578 189.076Z" fill="#022B3A"/>
<path d="M187.517 203.919L177.92 197.308L166.817 200.448L176.414 207.058L187.517 203.919Z" fill="#022B3A"/>
<path d="M176.324 196.211L166.727 189.6L155.625 192.727L165.234 199.35L176.324 196.211Z" fill="#022B3A"/>
<path d="M163.371 199.874L153.774 193.263L142.671 196.39L152.268 203.013L163.371 199.874Z" fill="#022B3A"/>
<path d="M115.092 191.77L105.495 185.159L104.64 185.402L112.208 192.587L115.092 191.77Z" fill="#022B3A"/>
<path d="M200.291 212.725L189.188 215.865L200.7 223.79L211.522 220.459L200.291 212.725Z" fill="#022B3A"/>
<path d="M187.325 216.388L176.222 219.514L188.078 227.682L198.887 224.351L187.325 216.388Z" fill="#022B3A"/>
<path d="M137.464 207.186L127.867 200.576L122.29 202.145L129.871 209.343L137.464 207.186Z" fill="#022B3A"/>
<path d="M211.662 207.965L202.052 201.354L190.949 204.493L200.559 211.104L211.662 207.965Z" fill="#022B3A"/>
<path d="M148.644 214.907L139.047 208.284L131.121 210.53L138.689 217.715L148.644 214.907Z" fill="#022B3A"/>
<path d="M159.836 222.615L150.239 215.992L139.94 218.901L147.521 226.086L159.836 222.615Z" fill="#022B3A"/>
<path d="M172.789 218.953L163.192 212.33L152.089 215.469L161.686 222.093L172.789 218.953Z" fill="#022B3A"/>
<path d="M235.502 208.565L229.121 204.57L215.083 208.539L225.93 216.018L234.379 213.465C234.935 213.417 235.462 213.193 235.883 212.826C236.305 212.459 236.599 211.968 236.724 211.424C236.848 210.879 236.797 210.309 236.578 209.796C236.358 209.282 235.982 208.851 235.502 208.565Z" fill="#022B3A"/>
<path d="M161.418 223.701L148.771 227.274L158.725 236.718L173.644 232.124L161.418 223.701Z" fill="#022B3A"/>
<path d="M217.278 197.053L203.916 200.831L213.513 207.441L227.487 203.498L217.278 197.053Z" fill="#022B3A"/>
<path d="M213.245 209.062L202.142 212.202L213.321 219.91L224.144 216.579L213.245 209.062Z" fill="#022B3A"/>
<path d="M135.218 153.483L144.292 150.918L138.434 147.217L129.679 149.668L135.218 153.483Z" fill="#022B3A"/>
<path d="M186.266 228.243L174.372 220.037L163.269 223.177L175.444 231.574L186.266 228.243Z" fill="#022B3A"/>
<path d="M136.801 154.581L146.398 161.192L156.186 158.435L145.977 151.99L136.801 154.581Z" fill="#022B3A"/>
<path d="M159.172 169.998L168.769 176.609L179.948 173.457L169.752 167.012L159.172 169.998Z" fill="#022B3A"/>
<path d="M147.98 162.29L157.59 168.9L168.067 165.939L157.858 159.495L147.98 162.29Z" fill="#022B3A"/>
<path d="M170.352 177.706L179.949 184.317L191.83 180.973L181.633 174.516L170.352 177.706Z" fill="#022B3A"/>
<path d="M181.544 185.415L191.141 192.025L203.712 188.478L193.515 182.033L181.544 185.415Z" fill="#022B3A"/>
<path d="M205.396 189.537L192.723 193.123L202.32 199.733L215.593 195.994L205.396 189.537Z" fill="#022B3A"/>
<path d="M123.847 158.244L133.444 164.855L144.547 161.715L134.95 155.104L123.847 158.244Z" fill="#022B3A"/>
<path d="M101.424 182.365L103.39 184.215L103.9 184.062L101.424 182.365Z" fill="#022B3A"/>
<path d="M96.3449 164.472L107.448 161.333L101.858 157.479L90.7296 160.592L96.3449 164.472Z" fill="#022B3A"/>
<path d="M109.298 160.809L120.401 157.67L114.837 153.828L103.708 156.955L109.298 160.809Z" fill="#022B3A"/>
<path d="M116.7 153.318L122.265 157.146L133.367 154.007L127.816 150.191L116.7 153.318Z" fill="#022B3A"/>
<path d="M126.272 199.491L116.675 192.867L113.459 193.773L121.039 200.958L126.272 199.491Z" fill="#022B3A"/>
<path d="M161.533 244.502L132.181 125.675C131.512 122.974 130.071 120.526 128.033 118.631L48.9084 44.8534C48.5722 44.5411 48.1446 44.3449 47.6885 44.2937C47.2324 44.2425 46.772 44.339 46.3748 44.569C45.9777 44.799 45.6648 45.1503 45.4822 45.5714C45.2997 45.9924 45.257 46.461 45.3606 46.9081L71.2292 157.835L161.533 244.502Z" fill="#FFA62B" stroke="#022B3A" stroke-linecap="round" stroke-linejoin="round"/>
<path d="M117.172 113.768L126.221 121.681C126.221 121.681 129.041 122.242 131.862 136.37" stroke="#022B3A" stroke-width="0.5" stroke-linecap="round" stroke-linejoin="round"/>
<path d="M133.559 143.708L150.239 215.992" stroke="#022B3A" stroke-width="0.5" stroke-linecap="round" stroke-linejoin="round"/>
<path d="M84.7186 110.54C88.6365 120.06 88.2792 129.236 83.9146 131.035C79.55 132.835 72.8244 126.569 68.9065 116.997C64.9885 107.426 65.3459 98.3009 69.7105 96.5142C74.0751 94.7275 80.8006 101.019 84.7186 110.54Z" fill="#FFA62B"/>
<path opacity="0.6" d="M84.7186 110.54C88.6365 120.06 88.2792 129.236 83.9146 131.035C79.55 132.835 72.8244 126.569 68.9065 116.997C64.9885 107.426 65.3459 98.3009 69.7105 96.5142C74.0751 94.7275 80.8006 101.019 84.7186 110.54Z" fill="white"/>
<path d="M81.8596 126.054C84.9619 124.776 85.2164 118.251 82.4282 111.48C79.6399 104.708 74.8647 100.254 71.7624 101.532C68.6602 102.809 68.4056 109.334 71.1939 116.106C73.9821 122.877 78.7574 127.331 81.8596 126.054Z" stroke="#022B3A" stroke-miterlimit="10"/>
<path d="M90.7676 149.579C92.8095 154.518 91.9672 159.546 88.9043 160.809C85.8415 162.073 81.7066 159.087 79.6646 154.16C77.6227 149.234 78.4778 144.193 81.5407 142.93C84.6035 141.666 88.7384 144.653 90.7676 149.579Z" fill="#022B3A"/>
<path d="M86.5437 157.937C84.6167 157.937 82.5237 156.189 81.4389 153.458C80.8282 152.054 80.6163 150.508 80.8264 148.991C80.8824 148.359 81.1027 147.751 81.4653 147.23C81.8279 146.708 82.3203 146.291 82.8938 146.018C85.0506 145.124 87.8072 147 89.16 150.28C90.5 153.56 89.8619 156.827 87.7051 157.72C87.3355 157.867 86.9412 157.94 86.5437 157.937ZM83.9913 147.077C83.7721 147.075 83.5548 147.118 83.3532 147.205C82.9865 147.401 82.6765 147.688 82.453 148.039C82.2295 148.39 82.1 148.793 82.077 149.208C81.8945 150.509 82.0802 151.836 82.613 153.037C83.6468 155.589 85.7525 157.197 87.2074 156.597C88.6622 155.998 89.0068 153.356 87.9603 150.829C87.0032 148.596 85.2675 147.077 83.9913 147.077Z" fill="#FFA62B"/>
<g opacity="0.5">
<path d="M86.5437 157.937C84.6167 157.937 82.5237 156.189 81.4389 153.458C80.8282 152.054 80.6163 150.508 80.8264 148.991C80.8824 148.359 81.1027 147.751 81.4653 147.23C81.8279 146.708 82.3203 146.291 82.8938 146.018C85.0506 145.124 87.8072 147 89.16 150.28C90.5 153.56 89.8619 156.827 87.7051 157.72C87.3355 157.867 86.9412 157.94 86.5437 157.937ZM83.9913 147.077C83.7721 147.075 83.5548 147.118 83.3532 147.205C82.9865 147.401 82.6765 147.688 82.453 148.039C82.2295 148.39 82.1 148.793 82.077 149.208C81.8945 150.509 82.0802 151.836 82.613 153.037C83.6468 155.589 85.7525 157.197 87.2074 156.597C88.6622 155.998 89.0068 153.356 87.9603 150.829C87.0032 148.596 85.2675 147.077 83.9913 147.077Z" fill="white"/>
</g>
<path d="M113.523 151.161L106.261 162.647C106.074 162.926 105.974 163.255 105.974 163.591C105.974 163.928 106.074 164.256 106.261 164.536L121.805 187.201C121.941 187.402 122.118 187.573 122.324 187.701C122.531 187.83 122.761 187.913 123.002 187.947C123.243 187.981 123.488 187.964 123.721 187.897C123.955 187.83 124.171 187.714 124.358 187.558L132.41 180.986C132.731 180.727 132.948 180.362 133.021 179.956C133.093 179.55 133.017 179.132 132.806 178.778L116.458 151.225C116.312 150.968 116.101 150.753 115.847 150.601C115.593 150.45 115.304 150.367 115.008 150.36C114.713 150.354 114.42 150.424 114.16 150.565C113.899 150.705 113.68 150.91 113.523 151.161Z" fill="#022B3A"/>
<path d="M100.888 166.386C100.888 166.386 121.001 163.042 134.822 191.374L138.255 187.15C138.255 187.15 124.944 164.982 114.097 163.004C103.249 161.026 99.3055 161.013 99.3055 161.013L100.888 166.386Z" fill="#FFA62B"/>
<path opacity="0.5" d="M100.888 166.386C100.888 166.386 121.001 163.042 134.822 191.374L138.255 187.15C138.255 187.15 124.944 164.982 114.097 163.004C103.249 161.026 99.3055 161.013 99.3055 161.013L100.888 166.386Z" fill="white"/>
<path d="M14.1447 105.243L46.9685 97.8286" stroke="#022B3A" stroke-linecap="round" stroke-linejoin="round"/>
<path d="M454 228.333L443.012 222.59" stroke="#022B3A" stroke-linecap="round" stroke-linejoin="round"/>
<path d="M436.21 219.029L168.31 79.0684" stroke="#022B3A" stroke-linecap="round" stroke-linejoin="round"/>
<path d="M175.354 133.882L231.647 170.177L277.948 151.289L215.58 119.588L175.354 133.882Z" fill="#022B3A" stroke="#022B3A" stroke-linecap="round" stroke-linejoin="round"/>
<path d="M211.534 126.313L189.099 134.239" stroke="white" stroke-width="0.5" stroke-linecap="round" stroke-linejoin="round"/>
<path d="M192.621 136.88L233.103 162.404L266.092 149.642" stroke="white" stroke-width="0.5" stroke-linecap="round" stroke-linejoin="round"/>
<path d="M49.9678 50.5073L114.352 110.387" stroke="#022B3A" stroke-width="0.5" stroke-linecap="round" stroke-linejoin="round"/>
</svg>
