<svg width="456" height="370" viewBox="0 0 456 370" fill="none" xmlns="http://www.w3.org/2000/svg">
<path d="M206.909 311.763L129.939 342.558L40.6366 253.256L99.1438 244.792L206.909 311.763Z" fill="#FFA62B"/>
<path opacity="0.5" d="M206.909 311.763L129.939 342.558L40.6366 253.256L99.1438 244.792L206.909 311.763Z" fill="white"/>
<path d="M301.592 352.569C311.796 352.569 320.067 347.053 320.067 340.249C320.067 333.445 311.796 327.928 301.592 327.928C291.389 327.928 283.118 333.445 283.118 340.249C283.118 347.053 291.389 352.569 301.592 352.569Z" fill="#FFA62B"/>
<path opacity="0.5" d="M301.592 352.569C311.796 352.569 320.067 347.053 320.067 340.249C320.067 333.445 311.796 327.928 301.592 327.928C291.389 327.928 283.118 333.445 283.118 340.249C283.118 347.053 291.389 352.569 301.592 352.569Z" fill="white"/>
<path d="M229.241 270.299L342.029 279.236L316.996 266.35L229.241 270.299Z" fill="#FFA62B"/>
<path opacity="0.5" d="M229.241 270.299L342.029 279.236L316.996 266.35L229.241 270.299Z" fill="white"/>
<path d="M254.644 235.555L221.181 232.818L225.384 227.853H244.633L254.644 235.555Z" fill="#FFA62B"/>
<path opacity="0.5" d="M254.644 235.555L221.181 232.818L225.384 227.853H244.633L254.644 235.555Z" fill="white"/>
<path d="M363.148 369.116C376.113 369.116 386.623 362.741 386.623 354.879C386.623 347.016 376.113 340.641 363.148 340.641C350.183 340.641 339.674 347.016 339.674 354.879C339.674 362.741 350.183 369.116 363.148 369.116Z" fill="#FFA62B"/>
<path opacity="0.5" d="M363.148 369.116C376.113 369.116 386.623 362.741 386.623 354.879C386.623 347.016 376.113 340.641 363.148 340.641C350.183 340.641 339.674 347.016 339.674 354.879C339.674 362.741 350.183 369.116 363.148 369.116Z" fill="white"/>
<path d="M224.045 321.82L211.401 342.593L239.402 348.02L250.244 327.247L224.045 321.82Z" fill="white" stroke="#022B3A" stroke-linecap="round" stroke-linejoin="round"/>
<path d="M245.73 298.346L233.086 317.306L259.274 325.434L270.117 306.475L245.73 298.346Z" fill="#FFA62B"/>
<mask id="mask0_6_841" style="mask-type:luminance" maskUnits="userSpaceOnUse" x="233" y="298" width="38" height="28">
<path d="M245.73 298.346L233.086 317.306L259.274 325.434L270.117 306.475L245.73 298.346Z" fill="white"/>
</mask>
<g mask="url(#mask0_6_841)">
<path opacity="0.5" d="M245.73 298.346L233.086 317.306L259.274 325.434L270.117 306.475L245.73 298.346Z" fill="white" stroke="#022B3A" stroke-miterlimit="10"/>
</g>
<path d="M245.73 298.346L233.086 317.306L259.274 325.434L270.117 306.475L245.73 298.346Z" stroke="#022B3A" stroke-linecap="round" stroke-linejoin="round"/>
<path d="M273.73 334.475L251.145 340.792L260.174 355.248L286.374 348.92L273.73 334.475Z" fill="#FFA62B" stroke="#022B3A" stroke-linecap="round" stroke-linejoin="round"/>
<path d="M338.16 330.769L340.47 348.308C340.47 355.571 349.303 361.472 360.203 361.472C371.103 361.472 379.948 355.571 379.948 348.308L382.327 330.769H338.16Z" fill="#FFA62B" stroke="#022B3A" stroke-linecap="round" stroke-linejoin="round"/>
<path d="M360.226 345.514C372.438 345.514 382.338 338.912 382.338 330.769C382.338 322.625 372.438 316.024 360.226 316.024C348.014 316.024 338.114 322.625 338.114 330.769C338.114 338.912 348.014 345.514 360.226 345.514Z" fill="#FFA62B" stroke="#022B3A" stroke-linecap="round" stroke-linejoin="round"/>
<path d="M360.226 343.309C370.615 343.309 379.036 337.694 379.036 330.769C379.036 323.843 370.615 318.229 360.226 318.229C349.838 318.229 341.417 323.843 341.417 330.769C341.417 337.694 349.838 343.309 360.226 343.309Z" fill="#FFA62B" stroke="#022B3A" stroke-linecap="round" stroke-linejoin="round"/>
<path d="M360.226 343.32C370.436 343.32 378.713 338.719 378.713 333.044C378.713 327.368 370.436 322.767 360.226 322.767C350.017 322.767 341.74 327.368 341.74 333.044C341.74 338.719 350.017 343.32 360.226 343.32Z" fill="#022B3A" stroke="#022B3A" stroke-linecap="round" stroke-linejoin="round"/>
<path d="M366.889 297.11C363.679 295.043 358.806 295.228 356.855 299.05C353.968 304.616 356.035 314.927 354.996 316.37C353.957 317.814 350.874 318.229 349.43 315.135C347.987 312.04 347.987 307.918 346.128 307.71C344.269 307.502 341.798 308.334 341.382 313.079C340.967 317.825 341.798 323.183 345.1 325.654C348.403 328.125 352.109 327.305 353.183 328.344C354.257 329.383 353.183 331 353.183 332.062C353.183 336.681 359.222 338.99 363.044 337.836C368.609 336.184 367.997 330.607 368.817 328.344C369.637 326.081 374.187 325.862 375.838 322.363C377.489 318.864 379.96 311.832 376.45 309.153C372.939 306.475 370.261 307.71 369.857 310.597C369.376 312.889 368.6 315.109 367.547 317.202C370.018 312.317 372.443 300.69 366.889 297.11Z" fill="#FFA62B"/>
<mask id="mask1_6_841" style="mask-type:luminance" maskUnits="userSpaceOnUse" x="341" y="295" width="38" height="44">
<path d="M366.889 297.11C363.679 295.043 358.806 295.228 356.855 299.05C353.968 304.616 356.035 314.927 354.996 316.37C353.957 317.814 350.874 318.229 349.43 315.135C347.987 312.04 347.987 307.918 346.128 307.71C344.269 307.502 341.798 308.334 341.382 313.079C340.967 317.825 341.798 323.183 345.1 325.654C348.403 328.125 352.109 327.305 353.183 328.344C354.257 329.383 353.183 331 353.183 332.062C353.183 336.681 359.222 338.99 363.044 337.836C368.609 336.184 367.997 330.607 368.817 328.344C369.637 326.081 374.187 325.862 375.838 322.363C377.489 318.864 379.96 311.832 376.45 309.153C372.939 306.475 370.261 307.71 369.857 310.597C369.376 312.889 368.6 315.109 367.547 317.202C370.018 312.317 372.443 300.69 366.889 297.11Z" fill="white"/>
</mask>
<g mask="url(#mask1_6_841)">
<path opacity="0.2" d="M366.889 297.11C363.679 295.043 358.806 295.228 356.855 299.05C353.968 304.616 356.035 314.927 354.996 316.37C353.957 317.814 350.874 318.229 349.43 315.135C347.987 312.04 347.987 307.918 346.128 307.71C344.269 307.502 341.798 308.334 341.382 313.079C340.967 317.825 341.798 323.183 345.1 325.654C348.403 328.125 352.109 327.305 353.183 328.344C354.257 329.383 353.183 331 353.183 332.062C353.183 336.681 359.222 338.99 363.044 337.836C368.609 336.184 367.997 330.607 368.817 328.344C369.637 326.081 374.187 325.862 375.838 322.363C377.489 318.864 379.96 311.832 376.45 309.153C372.939 306.475 370.261 307.71 369.857 310.597C369.376 312.889 368.6 315.109 367.547 317.202C370.018 312.317 372.443 300.69 366.889 297.11Z" fill="#022B3A"/>
</g>
<path d="M366.889 297.11C363.679 295.043 358.806 295.228 356.855 299.05C353.968 304.616 356.035 314.927 354.996 316.37C353.957 317.814 350.874 318.229 349.43 315.135C347.987 312.04 347.987 307.918 346.128 307.71C344.269 307.502 341.798 308.334 341.382 313.079C340.967 317.825 341.798 323.183 345.1 325.654C348.403 328.125 352.109 327.305 353.183 328.344C354.257 329.383 353.183 331 353.183 332.062C353.183 336.681 359.222 338.99 363.044 337.836C368.609 336.184 367.997 330.607 368.817 328.344C369.637 326.081 374.187 325.862 375.838 322.363C377.489 318.864 379.96 311.832 376.45 309.153C372.939 306.475 370.261 307.71 369.857 310.597C369.376 312.889 368.6 315.109 367.547 317.202C370.018 312.317 372.443 300.69 366.889 297.11Z" stroke="#022B3A" stroke-linecap="round" stroke-linejoin="round"/>
<path d="M361.809 298.634C360.872 299.251 360.088 300.072 359.516 301.036C358.944 302.001 358.598 303.083 358.506 304.2C358.298 307.918 358.506 319.673 357.063 321.324C355.62 322.975 350.874 322.559 347.825 319.673C344.777 316.786 346.128 310.608 346.128 310.608" stroke="#022B3A" stroke-width="0.5" stroke-linecap="round" stroke-linejoin="round"/>
<path d="M347.04 323.31C348.109 324.142 349.346 324.733 350.665 325.042C354.383 325.862 357.062 324.014 357.686 325.862C358.309 327.709 357.062 334.325 357.062 334.325" stroke="#022B3A" stroke-width="0.5" stroke-linecap="round" stroke-linejoin="round"/>
<path d="M344.892 321.116C345.277 321.658 345.718 322.157 346.209 322.605" stroke="#022B3A" stroke-width="0.5" stroke-linecap="round" stroke-linejoin="round"/>
<path d="M361.739 330.942C361.948 327.867 361.971 324.782 361.809 321.705C361.439 317.086 363.587 308.507 364.118 304.627" stroke="#022B3A" stroke-width="0.5" stroke-linecap="round" stroke-linejoin="round"/>
<path d="M361.392 335.769C361.392 335.769 361.508 334.51 361.635 332.663" stroke="#022B3A" stroke-width="0.5" stroke-linecap="round" stroke-linejoin="round"/>
<path d="M375.676 315.1C375.78 314.095 375.838 313.483 375.838 313.483" stroke="#022B3A" stroke-width="0.5" stroke-linecap="round" stroke-linejoin="round"/>
<path d="M365.93 332.051C365.93 332.051 366.762 325.25 368.413 323.968C370.064 322.686 374.798 321.901 375.214 318.807C375.283 318.322 375.341 317.86 375.399 317.432" stroke="#022B3A" stroke-width="0.5" stroke-linecap="round" stroke-linejoin="round"/>
<path d="M372.951 310.805C372.518 311.095 372.173 311.498 371.953 311.97C371.733 312.442 371.647 312.966 371.704 313.483C371.788 314.72 371.525 315.955 370.943 317.049C370.362 318.143 369.485 319.052 368.413 319.673" stroke="#022B3A" stroke-width="0.5" stroke-linecap="round" stroke-linejoin="round"/>
<path d="M364.348 302.272C364.41 301.117 364.387 299.959 364.279 298.808" stroke="#022B3A" stroke-width="0.5" stroke-linecap="round" stroke-linejoin="round"/>
<path d="M285.716 297.745L288.776 329.961V333.367C288.776 337.986 295.265 341.646 303.279 341.646C311.292 341.646 317.782 337.94 317.782 333.367V329.961L320.564 297.411L285.716 297.745Z" fill="white" stroke="#022B3A" stroke-linecap="round" stroke-linejoin="round"/>
<path d="M317.92 328.217L319.525 309.454C317.366 312.814 310.923 315.227 303.302 315.227C295.277 315.227 288.568 312.525 286.778 308.888L288.603 328.102C291.559 330.561 297.02 332.224 303.302 332.224C309.583 332.224 314.964 330.642 317.92 328.217Z" fill="#FFA62B" stroke="#022B3A" stroke-linecap="round" stroke-linejoin="round"/>
<path d="M286.293 303.819V303.6L286.143 302.306L286.293 303.819Z" fill="white" stroke="#022B3A" stroke-linecap="round" stroke-linejoin="round"/>
<path d="M321.118 292.965C318.047 289.085 311.223 286.372 303.279 286.372C295.334 286.372 288.51 289.085 285.427 292.965H283.684V297.584C283.684 303.773 292.459 308.784 303.313 308.784C314.167 308.784 322.943 303.773 322.943 297.584V292.965H321.118Z" fill="#FFA62B" stroke="#022B3A" stroke-linecap="round" stroke-linejoin="round"/>
<path opacity="0.2" d="M321.118 292.965C318.047 289.085 311.223 286.372 303.279 286.372C295.334 286.372 288.51 289.085 285.427 292.965H283.684V297.584C283.684 303.773 292.459 308.784 303.313 308.784C314.167 308.784 322.943 303.773 322.943 297.584V292.965H321.118Z" fill="#022B3A"/>
<path d="M303.279 304.165C314.101 304.165 322.873 299.151 322.873 292.965C322.873 286.779 314.101 281.765 303.279 281.765C292.457 281.765 283.684 286.779 283.684 292.965C283.684 299.151 292.457 304.165 303.279 304.165Z" fill="white" stroke="#022B3A" stroke-linecap="round" stroke-linejoin="round"/>
<path d="M318.866 286.718C316.176 283.324 310.218 280.945 303.278 280.945C296.339 280.945 290.381 283.312 287.69 286.718H286.201V290.737C286.201 296.14 293.856 300.517 303.313 300.517C312.77 300.517 320.425 296.14 320.425 290.737V286.718H318.866Z" fill="#FFA62B" stroke="#022B3A" stroke-linecap="round" stroke-linejoin="round"/>
<path d="M303.279 296.498C312.73 296.498 320.391 292.12 320.391 286.718C320.391 281.317 312.73 276.938 303.279 276.938C293.828 276.938 286.167 281.317 286.167 286.718C286.167 292.12 293.828 296.498 303.279 296.498Z" fill="white" stroke="#022B3A" stroke-linecap="round" stroke-linejoin="round"/>
<path d="M130.562 191.746C130.562 191.746 131.902 190.857 140.4 194.425C148.899 197.993 152.236 197.22 160.503 195.765C170.433 194.033 178.678 192.301 179.671 196.319C181.391 203.247 174.44 203.166 161.935 204.506C149.43 205.845 142.178 202.023 138.16 200.233C136.311 199.474 134.52 198.578 132.803 197.554L130.562 191.746Z" fill="white" stroke="#022B3A" stroke-linecap="round" stroke-linejoin="round"/>
<path d="M111.349 195.326C111.349 195.326 122.526 208.281 127.433 204.702C132.341 201.122 131.902 189.518 127.433 185.938C122.965 182.359 110.46 189.068 111.349 195.326Z" fill="white" stroke="#022B3A" stroke-linecap="round" stroke-linejoin="round"/>
<path d="M145.331 159.577C145.331 159.577 145.781 171.644 142.652 179.68C139.523 187.717 133.715 193.086 132.826 197.554C131.937 202.023 132.375 208.281 127.907 210.071C123.438 211.861 123.438 208.732 123.889 205.152C124.339 201.573 125.228 188.179 125.228 188.179L110.46 197.104C110.46 197.104 114.478 208.281 105.991 209.621C97.5044 210.96 87.2278 198.005 85.8884 188.213C84.5489 178.422 89.9066 156.483 99.2941 150.675C108.682 144.867 120.736 145.767 127.006 145.767C133.276 145.767 142.629 150.201 145.331 159.577Z" fill="white" stroke="#022B3A" stroke-linecap="round" stroke-linejoin="round"/>
<path d="M109.709 147.176C109.709 147.176 107.4 148.331 103.37 154.67C99.3403 161.009 107.4 166.471 111.73 163.596C116.06 160.72 112.296 154.67 115.471 151.783C117.298 150.234 118.524 148.093 118.935 145.733L109.709 147.176Z" fill="#022B3A"/>
<path d="M96.7535 156.102C95.7212 156.839 94.8541 157.783 94.2079 158.875C93.5617 159.967 93.1506 161.181 93.0009 162.441C92.7122 166.471 99.9289 158.977 100.783 155.513C101.638 152.049 96.7535 156.102 96.7535 156.102Z" fill="#022B3A"/>
<path d="M122.526 147.072C121.501 148.934 121.002 151.039 121.081 153.162C121.16 155.285 121.816 157.347 122.976 159.127C126.995 165.385 135.932 168.064 139.5 163.596C143.068 159.127 144.419 156.898 143.079 154.67C141.74 152.441 128.784 143.493 122.526 147.072Z" fill="#FFA62B" stroke="#022B3A" stroke-linecap="round" stroke-linejoin="round"/>
<path d="M155.584 125.18C153.888 125.364 152.173 125.18 150.554 124.64C148.936 124.099 147.454 123.216 146.208 122.05C141.74 118.032 137.71 109.095 135.932 109.534C134.154 109.973 127.849 122.94 127.849 122.94C127.849 122.94 117.122 123.84 116.233 126.958C115.344 130.075 120.251 144.832 124.316 151.09C126.211 153.878 128.734 156.182 131.682 157.816C134.631 159.451 137.921 160.37 141.29 160.501C146.647 160.501 162.732 161.84 164.972 156.471C167.212 151.102 165.411 135.029 165.411 135.029C165.411 135.029 172.57 127.882 169.44 126.542C166.311 125.203 155.584 125.18 155.584 125.18Z" fill="white" stroke="#022B3A" stroke-linecap="round" stroke-linejoin="round"/>
<path d="M153.414 147.534C152.871 146.83 152.351 146.114 151.843 145.375C151 144.128 149.003 142.223 145.158 143.435C139.685 145.155 135.92 150.363 141.994 154.67C147.71 158.769 159.187 155.074 153.414 147.534Z" fill="#022B3A"/>
<path d="M127.884 122.94C127.884 122.94 134.142 126.519 137.71 125.18C141.278 123.84 139.049 108.645 135.932 109.534C132.814 110.423 127.433 117.132 127.884 122.94Z" fill="white" stroke="#022B3A" stroke-linecap="round" stroke-linejoin="round"/>
<path d="M169.44 126.519C169.44 126.519 163.667 126.069 160.053 130.087C156.439 134.105 158.713 138.17 163.632 139.024C168.551 139.879 171.218 126.519 169.44 126.519Z" fill="white" stroke="#022B3A" stroke-linecap="round" stroke-linejoin="round"/>
<path d="M134.592 151.541C134.592 151.541 128.819 147.072 130.124 150.64C131.428 154.208 133.692 154.67 135.897 153.769C138.102 152.869 134.592 151.541 134.592 151.541Z" fill="#FFA62B" stroke="#022B3A" stroke-linecap="round" stroke-linejoin="round"/>
<path d="M131.405 140.34C131.07 141.495 130.124 142.303 129.292 142.072C128.461 141.842 128.057 140.687 128.392 139.498C128.726 138.308 129.673 137.535 130.505 137.766C131.336 137.996 131.74 139.163 131.405 140.34Z" fill="#022B3A"/>
<path d="M145.181 150.883C144.107 151.506 142.871 151.414 142.456 150.663C142.04 149.913 142.525 148.816 143.61 148.192C144.007 147.877 144.508 147.723 145.014 147.761C145.519 147.8 145.991 148.028 146.335 148.4C146.751 149.151 146.243 150.259 145.181 150.883Z" fill="white"/>
<path d="M105.102 179.241C105.102 179.241 103.762 189.068 105.541 193.097C107.319 197.127 109.12 212.311 112.7 212.727C116.279 213.143 114.928 204.644 114.928 203.339C114.928 202.035 115.378 187.705 115.378 187.705C115.378 187.705 118.508 180.996 120.286 177.429" fill="white"/>
<path d="M105.102 179.241C105.102 179.241 103.762 189.068 105.541 193.097C107.319 197.127 109.12 212.311 112.7 212.727C116.279 213.143 114.928 204.644 114.928 203.339C114.928 202.035 115.378 187.705 115.378 187.705C115.378 187.705 118.508 180.996 120.286 177.429" stroke="#022B3A" stroke-linecap="round" stroke-linejoin="round"/>
<path d="M90.3571 178.791C90.3571 178.791 102.423 175.212 103.763 188.617" stroke="#022B3A" stroke-linecap="round" stroke-linejoin="round"/>
<path d="M125.205 188.213C125.205 188.213 135.481 182.844 135.932 171.228" stroke="#022B3A" stroke-linecap="round" stroke-linejoin="round"/>
<path d="M0.996826 206.492L8.60612 204.771" stroke="#022B3A" stroke-linecap="round" stroke-linejoin="round"/>
<path d="M64.5039 251.397L125.863 233.996C127.814 233.789 129.776 234.262 131.417 235.335L231.262 299.131C231.687 299.406 232.018 299.805 232.209 300.274C232.4 300.743 232.442 301.259 232.33 301.753C232.218 302.247 231.957 302.695 231.582 303.035C231.207 303.376 230.736 303.593 230.234 303.657L146.266 329.811L64.5039 251.397Z" fill="#FFA62B" stroke="#022B3A" stroke-linecap="round" stroke-linejoin="round"/>
<path d="M100.379 255.069L109.074 261.061L119.12 258.221L110.437 252.24L100.379 255.069Z" fill="#022B3A"/>
<path d="M105.795 271.823L97.1118 265.83L87.0546 268.671L95.7492 274.663L105.795 271.823Z" fill="#022B3A"/>
<path d="M122.226 258.741L130.909 264.722L140.954 261.881L132.271 255.9L122.226 258.741Z" fill="#022B3A"/>
<path d="M132.352 265.715L141.035 271.696L151.081 268.855L142.398 262.874L132.352 265.715Z" fill="#022B3A"/>
<path d="M110.506 262.043L119.189 268.036L129.235 265.195L120.552 259.214L110.506 262.043Z" fill="#022B3A"/>
<path d="M88.6594 258.383L97.3426 264.375L107.4 261.535L98.7051 255.542L88.6594 258.383Z" fill="#022B3A"/>
<path d="M157.997 296.406L149.303 290.413L139.269 293.254L147.952 299.247L157.997 296.406Z" fill="#022B3A"/>
<path d="M146.266 299.72L137.583 293.727L127.537 296.568L136.232 302.549L146.266 299.72Z" fill="#022B3A"/>
<path d="M115.91 278.797L107.227 272.804L97.1809 275.645L105.864 281.626L115.91 278.797Z" fill="#022B3A"/>
<path d="M168.112 303.38L159.429 297.399L149.383 300.228L158.066 306.221L168.112 303.38Z" fill="#022B3A"/>
<path d="M126.036 285.771L117.342 279.779L107.296 282.619L115.991 288.6L126.036 285.771Z" fill="#022B3A"/>
<path d="M136.151 292.746L127.468 286.753L117.422 289.593L126.105 295.586L136.151 292.746Z" fill="#022B3A"/>
<path d="M142.467 272.689L151.15 278.67L161.196 275.83L152.513 269.848L142.467 272.689Z" fill="#022B3A"/>
<path d="M98.7859 265.357L107.469 271.35L117.515 268.509L108.832 262.528L98.7859 265.357Z" fill="#022B3A"/>
<path d="M179.832 300.066L171.149 294.085L161.104 296.926L169.787 302.907L179.832 300.066Z" fill="#022B3A"/>
<path d="M149.476 279.144L140.793 273.162L130.748 275.991L139.431 281.984L149.476 279.144Z" fill="#022B3A"/>
<path d="M127.63 275.483L118.947 269.491L108.901 272.331L117.584 278.324L127.63 275.483Z" fill="#022B3A"/>
<path d="M85.5534 257.875L80.4728 254.364L73.6025 256.293L77.6208 260.115L85.5534 257.875Z" fill="#022B3A"/>
<path d="M95.6683 264.849L86.9851 258.856L78.7523 261.188L85.5533 267.632L85.6226 267.678L95.6683 264.849Z" fill="#022B3A"/>
<path d="M120.621 269.029L129.316 275.01L139.361 272.169L130.666 266.188L120.621 269.029Z" fill="#022B3A"/>
<path d="M137.756 282.458L129.073 276.476L119.027 279.305L127.71 285.298L137.756 282.458Z" fill="#022B3A"/>
<path d="M181.437 289.778L172.754 283.797L162.708 286.637L171.392 292.619L181.437 289.778Z" fill="#022B3A"/>
<path d="M152.582 279.663L161.277 285.644L171.322 282.804L162.639 276.823L152.582 279.663Z" fill="#022B3A"/>
<path d="M169.718 293.092L161.034 287.111L150.989 289.951L159.672 295.933L169.718 293.092Z" fill="#022B3A"/>
<path d="M159.591 286.118L150.908 280.137L140.862 282.966L149.557 288.958L159.591 286.118Z" fill="#022B3A"/>
<path d="M147.871 289.432L139.188 283.451L129.142 286.279L137.825 292.272L147.871 289.432Z" fill="#022B3A"/>
<path d="M104.19 282.1L95.5068 276.118L94.7332 276.338L101.58 282.839L104.19 282.1Z" fill="#022B3A"/>
<path d="M181.276 301.059L171.23 303.9L181.645 311.07L191.437 308.057L181.276 301.059Z" fill="#022B3A"/>
<path d="M169.544 304.373L159.499 307.202L170.225 314.592L180.006 311.578L169.544 304.373Z" fill="#022B3A"/>
<path d="M124.431 296.048L115.748 290.067L110.702 291.487L117.561 297.999L124.431 296.048Z" fill="#022B3A"/>
<path d="M191.564 296.752L182.869 290.771L172.823 293.612L181.518 299.593L191.564 296.752Z" fill="#022B3A"/>
<path d="M134.546 303.034L125.863 297.041L118.692 299.073L125.54 305.574L134.546 303.034Z" fill="#022B3A"/>
<path d="M144.673 310.008L135.99 304.015L126.671 306.648L133.53 313.149L144.673 310.008Z" fill="#022B3A"/>
<path d="M156.393 306.694L147.709 300.701L137.664 303.542L146.347 309.535L156.393 306.694Z" fill="#022B3A"/>
<path d="M213.133 297.295L207.36 293.681L194.658 297.272L204.473 304.038L212.117 301.729C212.621 301.685 213.097 301.482 213.478 301.151C213.86 300.819 214.126 300.374 214.239 299.882C214.352 299.389 214.305 298.873 214.107 298.409C213.908 297.944 213.567 297.554 213.133 297.295Z" fill="#022B3A"/>
<path d="M146.104 310.989L134.662 314.223L143.668 322.767L157.166 318.61L146.104 310.989Z" fill="#022B3A"/>
<path d="M196.644 286.88L184.555 290.298L193.238 296.279L205.882 292.711L196.644 286.88Z" fill="#022B3A"/>
<path d="M192.996 297.745L182.95 300.586L193.065 307.56L202.857 304.546L192.996 297.745Z" fill="#022B3A"/>
<path d="M122.399 247.459L130.609 245.138L125.309 241.79L117.388 244.007L122.399 247.459Z" fill="#022B3A"/>
<path d="M168.586 315.1L157.824 307.676L147.779 310.516L158.794 318.114L168.586 315.1Z" fill="#022B3A"/>
<path d="M123.831 248.452L132.514 254.434L141.371 251.94L132.133 246.108L123.831 248.452Z" fill="#022B3A"/>
<path d="M144.072 262.401L152.755 268.382L162.87 265.53L153.644 259.699L144.072 262.401Z" fill="#022B3A"/>
<path d="M133.946 255.427L142.64 261.408L152.12 258.729L142.883 252.898L133.946 255.427Z" fill="#022B3A"/>
<path d="M154.187 269.375L162.87 275.356L173.62 272.331L164.395 266.488L154.187 269.375Z" fill="#022B3A"/>
<path d="M164.313 276.349L172.997 282.331L184.37 279.121L175.144 273.289L164.313 276.349Z" fill="#022B3A"/>
<path d="M185.894 280.079L174.428 283.323L183.112 289.305L195.12 285.921L185.894 280.079Z" fill="#022B3A"/>
<path d="M112.111 251.766L120.794 257.748L130.84 254.907L122.156 248.926L112.111 251.766Z" fill="#022B3A"/>
<path d="M91.8234 273.59L93.6016 275.264L94.0634 275.125L91.8234 273.59Z" fill="#022B3A"/>
<path d="M87.2277 257.401L97.2733 254.561L92.2158 251.074L82.1471 253.891L87.2277 257.401Z" fill="#022B3A"/>
<path d="M98.9476 254.087L108.993 251.247L103.959 247.771L93.8901 250.6L98.9476 254.087Z" fill="#022B3A"/>
<path d="M105.645 247.309L110.679 250.773L120.725 247.933L115.702 244.48L105.645 247.309Z" fill="#022B3A"/>
<path d="M114.305 289.085L105.622 283.093L102.712 283.912L109.571 290.413L114.305 289.085Z" fill="#022B3A"/>
<path d="M146.208 329.811L119.651 222.299C119.046 219.855 117.742 217.64 115.898 215.925L44.3085 149.174C44.0042 148.891 43.6174 148.714 43.2047 148.667C42.7921 148.621 42.3755 148.708 42.0161 148.916C41.6568 149.124 41.3737 149.442 41.2086 149.823C41.0434 150.204 41.0048 150.628 41.0985 151.033L64.5037 251.397L146.208 329.811Z" fill="#FFA62B" stroke="#022B3A" stroke-linecap="round" stroke-linejoin="round"/>
<path d="M106.072 211.526L114.259 218.685C114.259 218.685 116.81 219.193 119.362 231.975" stroke="#022B3A" stroke-width="0.5" stroke-linecap="round" stroke-linejoin="round"/>
<path d="M120.898 238.615L135.989 304.015" stroke="#022B3A" stroke-width="0.5" stroke-linecap="round" stroke-linejoin="round"/>
<path d="M76.7087 208.605C80.2535 217.219 79.9302 225.521 75.9812 227.149C72.0323 228.777 65.9471 223.107 62.4023 214.447C58.8574 205.787 59.1807 197.531 63.1297 195.915C67.0787 194.298 73.1638 199.991 76.7087 208.605Z" fill="#FFA62B"/>
<path opacity="0.6" d="M76.7087 208.605C80.2535 217.219 79.9302 225.521 75.9812 227.149C72.0323 228.777 65.9471 223.107 62.4023 214.447C58.8574 205.787 59.1807 197.531 63.1297 195.915C67.0787 194.298 73.1638 199.991 76.7087 208.605Z" fill="white"/>
<path d="M74.1218 222.642C76.9286 221.486 77.1589 215.582 74.6362 209.455C72.1134 203.329 67.7929 199.299 64.9861 200.455C62.1792 201.61 61.9489 207.514 64.4716 213.641C66.9944 219.768 71.3149 223.797 74.1218 222.642Z" stroke="#022B3A" stroke-miterlimit="10"/>
<path d="M82.1816 243.926C84.0291 248.395 83.267 252.944 80.4958 254.087C77.7245 255.23 73.9834 252.528 72.1359 248.071C70.2885 243.614 71.0621 239.053 73.8333 237.91C76.6045 236.767 80.3457 239.469 82.1816 243.926Z" fill="#022B3A"/>
<path d="M78.3598 251.489C76.6163 251.489 74.7226 249.907 73.7411 247.436C73.1886 246.166 72.9968 244.767 73.1869 243.395C73.2376 242.823 73.4369 242.273 73.765 241.801C74.093 241.33 74.5385 240.951 75.0575 240.705C77.0089 239.896 79.503 241.594 80.7269 244.561C81.9393 247.529 81.362 250.485 79.4106 251.293C79.0762 251.425 78.7194 251.492 78.3598 251.489ZM76.0505 241.663C75.8521 241.661 75.6555 241.7 75.4731 241.778C75.1413 241.956 74.8608 242.216 74.6586 242.534C74.4564 242.851 74.3393 243.215 74.3185 243.591C74.1533 244.769 74.3213 245.969 74.8034 247.055C75.7387 249.365 77.6439 250.819 78.9603 250.277C80.2766 249.734 80.5883 247.344 79.6415 245.058C78.7755 243.037 77.2052 241.663 76.0505 241.663Z" fill="#FFA62B"/>
<g opacity="0.5">
<path d="M78.3598 251.489C76.6163 251.489 74.7226 249.907 73.7411 247.436C73.1886 246.166 72.9968 244.767 73.1869 243.395C73.2376 242.823 73.4369 242.273 73.765 241.801C74.093 241.33 74.5385 240.951 75.0575 240.705C77.0089 239.896 79.503 241.594 80.7269 244.561C81.9393 247.529 81.362 250.485 79.4106 251.293C79.0762 251.425 78.7194 251.492 78.3598 251.489ZM76.0505 241.663C75.8521 241.661 75.6555 241.7 75.4731 241.778C75.1413 241.956 74.8608 242.216 74.6586 242.534C74.4564 242.851 74.3393 243.215 74.3185 243.591C74.1533 244.769 74.3213 245.969 74.8034 247.055C75.7387 249.365 77.6439 250.819 78.9603 250.277C80.2766 249.734 80.5883 247.344 79.6415 245.058C78.7755 243.037 77.2052 241.663 76.0505 241.663Z" fill="white"/>
</g>
<path d="M102.77 245.358L96.1996 255.75C96.0303 256.003 95.9399 256.3 95.9399 256.604C95.9399 256.909 96.0303 257.206 96.1996 257.459L110.264 277.966C110.387 278.148 110.547 278.302 110.733 278.418C110.92 278.535 111.129 278.61 111.346 278.641C111.564 278.671 111.786 278.656 111.997 278.595C112.208 278.535 112.404 278.43 112.573 278.289L119.859 272.343C120.149 272.109 120.345 271.778 120.411 271.411C120.477 271.044 120.408 270.665 120.217 270.345L105.425 245.416C105.293 245.183 105.103 244.989 104.873 244.851C104.643 244.714 104.382 244.639 104.114 244.633C103.846 244.628 103.582 244.691 103.346 244.818C103.111 244.945 102.912 245.131 102.77 245.358Z" fill="#022B3A"/>
<path d="M91.3383 259.133C91.3383 259.133 109.536 256.108 122.041 281.742L125.147 277.92C125.147 277.92 113.104 257.863 103.289 256.073C93.4744 254.283 89.9065 254.272 89.9065 254.272L91.3383 259.133Z" fill="#FFA62B"/>
<path opacity="0.5" d="M91.3383 259.133C91.3383 259.133 109.536 256.108 122.041 281.742L125.147 277.92C125.147 277.92 113.104 257.863 103.289 256.073C93.4744 254.283 89.9065 254.272 89.9065 254.272L91.3383 259.133Z" fill="white"/>
<path d="M12.8552 203.813L42.5534 197.104" stroke="#022B3A" stroke-linecap="round" stroke-linejoin="round"/>
<path d="M201.413 268.474C197.853 269.036 194.264 269.395 190.663 269.548C185.086 269.768 182.719 269.768 183.573 271.061C184.428 272.354 191.102 273.636 193.457 274.063C195.813 274.49 201.413 268.474 201.413 268.474Z" fill="white" stroke="#022B3A" stroke-miterlimit="10"/>
<path d="M410.825 315.181L400.883 309.985" stroke="#022B3A" stroke-linecap="round" stroke-linejoin="round"/>
<path d="M212.233 193.825C212.233 193.825 214.323 190.165 215.2 194.702L212.233 193.825Z" fill="#022B3A"/>
<path d="M394.728 306.763L152.34 180.13" stroke="#022B3A" stroke-linecap="round" stroke-linejoin="round"/>
<path d="M158.713 229.724L209.646 262.563L251.537 245.473L195.108 216.791L158.713 229.724Z" fill="#022B3A" stroke="#022B3A" stroke-linecap="round" stroke-linejoin="round"/>
<path d="M191.448 222.876L171.149 230.047" stroke="white" stroke-width="0.5" stroke-linecap="round" stroke-linejoin="round"/>
<path d="M174.336 232.437L210.962 255.531L240.811 243.984" stroke="white" stroke-width="0.5" stroke-linecap="round" stroke-linejoin="round"/>
<path d="M368.575 74.5473C368.575 74.5473 397.742 79.166 407.13 94.8002C416.517 110.434 409.809 135.006 406.679 143.493C403.85 151.194 412.21 157.626 417.349 161.806C428.895 171.182 434.842 184.414 428.838 198.813C425.096 207.773 408.458 211.792 410.709 222.576C412.961 233.361 422.764 248.487 410.259 259.664C397.061 271.442 377.258 265.368 365.689 254.364C352.675 241.986 348.195 220.452 354.858 203.813C362.94 183.71 367.363 170.755 359.765 162.245C352.167 153.735 342.341 148.389 342.341 136.334C342.341 124.279 353.068 120.7 357.537 108.622C362.005 96.5438 355.747 84.0502 355.747 84.0502L368.575 74.5473Z" fill="#022B3A" stroke="#022B3A" stroke-linecap="round" stroke-linejoin="round"/>
<path d="M395.894 95.4006C401.529 99.6614 406.656 106.832 404.878 118.494C401.275 142.165 383.782 143.712 395.098 158.63C406.413 173.549 416.713 166.852 414.646 185.373C412.579 203.894 405.905 210.579 405.905 210.579" stroke="white" stroke-miterlimit="10"/>
<path d="M383.828 89.7081C386.084 90.2386 388.275 91.0129 390.364 92.0175" stroke="white" stroke-miterlimit="10"/>
<path d="M378.17 96.4052C378.17 96.4052 393.089 100.516 397.719 112.859C402.349 125.203 383.863 135.502 382.8 143.216" stroke="white" stroke-miterlimit="10"/>
<path d="M377.512 297.768C377.304 290.69 377.212 281.245 377.639 271.28C378.54 250.727 403.111 223.465 404 218.558C404.89 213.651 402.661 212.785 402.661 212.785L353.957 191.781C331.314 206.653 325.806 249.907 324.455 270.091L377.512 297.768Z" fill="#FFA62B" stroke="#022B3A" stroke-linecap="round" stroke-linejoin="round"/>
<path d="M397.372 214.089C397.372 214.089 401.46 216.641 397.372 220.729C393.285 224.816 382.038 242.194 377.42 252.413" stroke="#022B3A" stroke-width="0.5" stroke-linecap="round" stroke-linejoin="round"/>
<path d="M375.399 257.493C375.399 257.493 371.82 265.669 372.339 273.844C372.859 282.019 372.847 289.686 372.847 289.686" stroke="#022B3A" stroke-width="0.5" stroke-linecap="round" stroke-linejoin="round"/>
<path d="M279.861 202.993C282.009 208.582 284.596 220.602 282.875 227.472C281.986 231.04 279.007 238.534 276.363 244.919L342.029 279.236C341.96 265.565 342.133 243.984 343.876 239.977C346.451 233.961 367.074 177.267 365.815 164.381C364.557 151.495 339.616 133.02 339.616 133.02L343.438 101.613L320.679 115.365C320.679 115.365 318.093 127.812 315.518 130.826C312.943 133.84 291.893 138.124 285.877 145.837C279.861 153.55 282.009 177.198 282.009 178.479C282.009 179.761 277.714 197.451 279.861 202.993Z" fill="white"/>
<mask id="mask2_6_841" style="mask-type:luminance" maskUnits="userSpaceOnUse" x="276" y="101" width="90" height="179">
<path d="M279.861 202.993C282.009 208.582 284.596 220.602 282.875 227.472C281.986 231.04 279.007 238.534 276.363 244.919L342.029 279.236C341.96 265.565 342.133 243.984 343.876 239.977C346.451 233.961 367.074 177.267 365.815 164.381C364.557 151.495 339.616 133.02 339.616 133.02L343.438 101.613L320.679 115.365C320.679 115.365 318.093 127.812 315.518 130.826C312.943 133.84 291.893 138.124 285.877 145.837C279.861 153.55 282.009 177.198 282.009 178.479C282.009 179.761 277.714 197.451 279.861 202.993Z" fill="white"/>
</mask>
<g mask="url(#mask2_6_841)">
<g style="mix-blend-mode:multiply" opacity="0.5">
<path d="M365.781 164.335C364.487 151.448 339.581 132.974 339.581 132.974L343.438 101.613L320.679 115.365C320.679 115.365 319.929 118.956 318.843 122.755C320.31 122.628 321.949 122.42 323.785 122.097C332.468 120.561 337.076 117.478 337.076 117.478L332.457 136.9C332.457 136.9 355.966 150.756 362.097 167.568C362.929 169.877 363.818 172.036 364.73 174.184C365.507 170.96 365.86 167.649 365.781 164.335Z" fill="#FFA62B"/>
</g>
</g>
<path d="M279.861 202.993C282.009 208.582 284.596 220.602 282.875 227.472C281.986 231.04 279.007 238.534 276.363 244.919L342.029 279.236C341.96 265.565 342.133 243.984 343.876 239.977C346.451 233.961 367.074 177.267 365.815 164.381C364.557 151.495 339.616 133.02 339.616 133.02L343.438 101.613L320.679 115.365C320.679 115.365 318.093 127.812 315.518 130.826C312.943 133.84 291.893 138.124 285.877 145.837C279.861 153.55 282.009 177.198 282.009 178.479C282.009 179.761 277.714 197.451 279.861 202.993Z" stroke="#022B3A" stroke-linecap="round" stroke-linejoin="round"/>
<path d="M279.861 202.993C282.009 208.582 284.596 220.602 282.875 227.472C281.986 231.04 279.007 238.534 276.363 244.919L342.029 279.236C341.96 265.565 342.133 243.984 343.876 239.977C346.451 233.961 367.074 177.267 365.815 164.381C365.019 156.356 355.065 146.183 347.664 139.636C340.378 147.361 324.57 161.771 313.024 155.351C302.632 149.578 303.29 140.802 304.825 135.583C297.805 138.17 289.411 141.472 285.958 145.906C279.942 153.642 282.09 177.267 282.09 178.549C282.09 179.83 277.714 197.451 279.861 202.993Z" fill="#022B3A" stroke="#022B3A" stroke-linecap="round" stroke-linejoin="round"/>
<path d="M318.22 187.728L303.925 181.02C303.925 181.02 299.895 174.322 297.667 174.322C295.438 174.322 294.087 183.71 294.087 183.71C294.087 183.71 286.501 190.857 289.18 198.005C291.859 205.152 301.685 215.879 313.751 211.861C325.818 207.843 322.238 195.338 322.238 195.338C322.238 195.338 327.157 186.851 327.157 185.061C327.157 183.271 318.22 187.728 318.22 187.728Z" fill="white" stroke="#022B3A" stroke-linecap="round" stroke-linejoin="round"/>
<path d="M287.598 49.2022C287.598 49.2022 290.612 64.6748 290.173 75.4132C289.734 86.1517 285.45 90.424 286.709 95.1697C287.967 99.9154 303.463 117.513 312.908 119.222C322.354 120.93 344.696 106.335 351.14 99.8923C357.583 93.4492 358.437 84.004 357.583 80.1358C356.728 76.2677 353.287 45.3456 340.401 32.8867C327.515 20.4278 293.614 21.721 287.598 49.2022Z" fill="white"/>
<mask id="mask3_6_841" style="mask-type:luminance" maskUnits="userSpaceOnUse" x="286" y="25" width="72" height="95">
<path d="M287.598 49.2022C287.598 49.2022 290.612 64.6748 290.173 75.4132C289.734 86.1517 285.45 90.424 286.709 95.1697C287.967 99.9154 303.463 117.513 312.908 119.222C322.354 120.93 344.696 106.335 351.14 99.8923C357.583 93.4492 358.437 84.004 357.583 80.1358C356.728 76.2677 353.287 45.3456 340.401 32.8867C327.515 20.4278 293.614 21.721 287.598 49.2022Z" fill="white"/>
</mask>
<g mask="url(#mask3_6_841)">
<g style="mix-blend-mode:multiply" opacity="0.5">
<path d="M340.47 32.8867C335.655 28.268 327.896 25.4968 319.756 25.3236L319.224 41.3504C319.224 41.3504 316.661 57.1925 325.864 69.9632C335.067 82.7339 343.242 86.3249 344.258 91.4285C345.274 96.5322 340.655 101.613 328.924 110.342C324.336 113.814 319.421 116.831 314.248 119.349C324.305 119.706 345.031 106.07 351.197 99.8923C357.64 93.4492 358.495 84.004 357.64 80.1358C356.786 76.2677 353.322 45.3456 340.47 32.8867Z" fill="#FFA62B"/>
</g>
</g>
<path d="M287.598 49.2022C287.598 49.2022 290.612 64.6748 290.173 75.4132C289.734 86.1517 285.45 90.424 286.709 95.1697C287.967 99.9154 303.463 117.513 312.908 119.222C322.354 120.93 344.696 106.335 351.14 99.8923C357.583 93.4492 358.437 84.004 357.583 80.1358C356.728 76.2677 353.287 45.3456 340.401 32.8867C327.515 20.4278 293.614 21.721 287.598 49.2022Z" stroke="#022B3A" stroke-linecap="round" stroke-linejoin="round"/>
<path d="M303.924 80.9903C303.924 80.9903 302.631 89.1539 300.46 91.7288C302.146 93.1989 304.25 94.1035 306.476 94.3152" stroke="#022B3A" stroke-linecap="round" stroke-linejoin="round"/>
<path d="M304.779 101.613C307.578 102.853 310.628 103.422 313.685 103.274C316.742 103.125 319.723 102.264 322.388 100.758" stroke="#022B3A" stroke-linecap="round" stroke-linejoin="round"/>
<path d="M320.24 76.6949C320.24 78.1267 319.571 79.2814 318.739 79.2814C317.908 79.2814 317.238 78.1267 317.238 76.6949C317.238 75.2632 317.908 74.12 318.739 74.12C319.571 74.12 320.24 75.2747 320.24 76.6949Z" fill="#022B3A"/>
<path d="M298.983 73.2656C298.983 74.6858 298.313 75.8405 297.482 75.8405C296.65 75.8405 295.98 74.6858 295.98 73.2656C295.98 71.8453 296.65 70.6907 297.482 70.6907C298.313 70.6907 298.983 71.8453 298.983 73.2656Z" fill="#022B3A"/>
<path d="M293.186 62.0999C294.391 61.348 295.734 60.846 297.137 60.6238C298.539 60.4016 299.972 60.4638 301.35 60.8067" stroke="#022B3A" stroke-linecap="round" stroke-linejoin="round"/>
<path d="M313.37 62.5271C313.37 62.5271 315.945 61.2339 321.534 64.6748" stroke="#022B3A" stroke-linecap="round" stroke-linejoin="round"/>
<path d="M315.945 37.6093C315.945 37.6093 303.925 47.4933 297.909 53.4976C291.893 59.5019 289.319 63.8088 280.301 59.9522C271.283 56.0956 264.828 42.7591 276.837 26.8708C288.845 10.9825 312.066 6.2484 334.824 12.6915C357.583 19.1345 367.051 33.7411 368.76 49.641C370.469 65.5408 367.028 83.138 358.945 87.8722C350.863 92.6063 332.734 73.2656 326.291 61.2339C322.254 53.6302 318.795 45.733 315.945 37.6093Z" fill="#022B3A" stroke="#022B3A" stroke-linecap="round" stroke-linejoin="round"/>
<path d="M315.945 37.6093C315.945 37.6093 283.51 42.3896 281.975 49.5832C280.439 56.7768 290.207 54.7331 290.207 54.7331" stroke="white" stroke-miterlimit="10"/>
<path d="M277.795 42.355C275.601 47.043 277.345 50.1029 277.345 50.1029" stroke="white" stroke-miterlimit="10"/>
<path d="M348.334 22.3214C348.334 22.3214 316.95 17.1831 316.95 31.0623C316.95 31.0623 297.921 24.3768 285.578 33.6372C283.725 34.9878 282.025 36.5365 280.509 38.2559" stroke="white" stroke-miterlimit="10"/>
<path d="M318.532 34.1568C318.532 34.1568 326.534 59.9753 343.23 66.5685" stroke="white" stroke-miterlimit="10"/>
<path d="M335.182 41.0964C341.613 46.4079 350.816 51.6501 361.739 51.1305" stroke="white" stroke-miterlimit="10"/>
<path d="M325.183 30.5542C326.686 32.6225 328.338 34.579 330.125 36.4084" stroke="white" stroke-miterlimit="10"/>
<path d="M284.596 64.2476L334.847 72.8383C334.847 72.8383 334.847 80.4823 332.699 84.3851C330.552 88.2878 327.977 88.334 322.388 88.334C316.8 88.334 309.029 84.87 308.648 83.6114C307.758 80.5631 308.359 70.5059 308.359 70.5059L304.352 69.8593C304.352 69.8593 304.872 81.5792 302.724 82.8724C300.576 84.1657 286.397 81.5792 283.822 78.1498C281.247 74.7204 282.875 63.8088 284.596 64.2476Z" stroke="#022B3A" stroke-linecap="round" stroke-linejoin="round"/>
<path d="M334.847 72.8384L357.19 68.9702V71.9723L334.847 77.561V72.8384Z" fill="#FFA62B" stroke="#022B3A" stroke-linecap="round" stroke-linejoin="round"/>
<path d="M373.68 75.512C375.425 64.651 371.333 54.9612 364.539 53.8694C357.745 52.7776 350.823 60.6971 349.077 71.5582C347.332 82.4193 351.424 92.109 358.218 93.2009C365.012 94.2927 371.934 86.3731 373.68 75.512Z" fill="#FFA62B" stroke="#022B3A" stroke-linecap="round" stroke-linejoin="round"/>
<path d="M377.27 75.9444C375.803 85.0894 370.711 91.8673 365.919 91.0937C361.127 90.3201 358.414 82.2951 359.88 73.1501C361.347 64.0051 366.427 57.2387 371.231 58.0123C376.034 58.786 378.736 66.8109 377.27 75.9444Z" fill="#FFA62B" stroke="#022B3A" stroke-linecap="round" stroke-linejoin="round"/>
<path d="M370.492 37.6093C371.322 49.63 370.012 61.7026 366.624 73.2656C366.624 73.2656 366.197 80.1936 372.64 77.1337C379.083 74.0738 378.228 47.9205 377.362 37.1821C376.496 26.4436 368.356 29.4458 370.492 37.6093Z" fill="white" stroke="#022B3A" stroke-linecap="round" stroke-linejoin="round"/>
<path d="M346.452 17.4141C346.452 17.4141 356.324 14.8392 361.462 23.8687C366.601 32.8982 365.758 41.0502 373.009 41.9047C380.26 42.7591 380.745 34.6072 376.877 24.2959C373.009 13.9847 364.857 6.2484 353.68 5.39394C342.503 4.53949 337.006 13.5575 337.006 13.5575C337.006 13.5575 343.011 14.4119 346.452 17.4141Z" fill="#FFA62B" stroke="#022B3A" stroke-linecap="round" stroke-linejoin="round"/>
<path d="M345.585 178.075L315.945 245.52C315.945 245.52 235.187 260.53 227.889 260.53C220.592 260.53 205.951 265.68 202.972 267.458C199.993 269.237 170.791 282.642 176.414 283.474C179.878 283.993 188.838 279.063 188.838 279.063C188.838 279.063 174.659 285.991 175.941 288.081C177.222 290.171 194.415 281.638 194.415 281.638C194.415 281.638 178.7 290.875 181.922 291.395C184.855 291.914 188.4 290.24 191.413 288.081C194.042 286.467 196.872 285.209 199.831 284.34C199.831 284.34 192.903 288.958 192.083 291.06C191.263 293.161 193.804 291.914 196.378 291.06C201.197 288.982 205.855 286.55 210.315 283.785C212.024 282.492 217.186 279.917 220.627 276.915L227.497 270.899C227.497 270.899 273.453 272.181 294.468 271.326C315.483 270.472 325.829 268.324 333.565 260.588C341.301 252.852 363.205 203.882 368.355 190.569C373.505 177.255 370.076 169.519 364.891 160.547" fill="white"/>
<mask id="mask4_6_841" style="mask-type:luminance" maskUnits="userSpaceOnUse" x="175" y="160" width="196" height="133">
<path d="M345.585 178.075L315.945 245.52C315.945 245.52 235.187 260.53 227.889 260.53C220.592 260.53 205.951 265.68 202.972 267.458C199.993 269.237 170.791 282.642 176.414 283.474C179.878 283.993 188.838 279.063 188.838 279.063C188.838 279.063 174.659 285.991 175.941 288.081C177.222 290.171 194.415 281.638 194.415 281.638C194.415 281.638 178.7 290.875 181.922 291.395C184.855 291.914 188.4 290.24 191.413 288.081C194.042 286.467 196.872 285.209 199.831 284.34C199.831 284.34 192.903 288.958 192.083 291.06C191.263 293.161 193.804 291.914 196.378 291.06C201.197 288.982 205.855 286.55 210.315 283.785C212.024 282.492 217.186 279.917 220.627 276.915L227.497 270.899C227.497 270.899 273.453 272.181 294.468 271.326C315.483 270.472 325.829 268.324 333.565 260.588C341.301 252.852 363.205 203.882 368.355 190.569C373.505 177.255 370.076 169.519 364.891 160.547" fill="white"/>
</mask>
<g mask="url(#mask4_6_841)">
<g style="mix-blend-mode:multiply" opacity="0.5">
<path d="M346.786 222.264C332.93 248.325 321.233 256.5 308.971 262.678C296.708 268.855 229.241 270.345 229.241 270.345L232.081 271.026C244.263 271.326 277.483 272.031 294.434 271.338C315.483 270.484 325.794 268.336 333.531 260.6C341.267 252.863 363.171 203.894 368.321 190.58C370.711 184.414 371.242 179.449 370.63 174.992L367.709 176.828C361.657 192.381 354.67 207.554 346.786 222.264Z" fill="#FFA62B"/>
</g>
</g>
<path d="M345.585 178.075L315.945 245.52C315.945 245.52 235.187 260.53 227.889 260.53C220.592 260.53 205.951 265.68 202.972 267.458C199.993 269.237 170.791 282.642 176.414 283.474C179.878 283.993 188.838 279.063 188.838 279.063C188.838 279.063 174.659 285.991 175.941 288.081C177.222 290.171 194.415 281.638 194.415 281.638C194.415 281.638 178.7 290.875 181.922 291.395C184.855 291.914 188.4 290.24 191.413 288.081C194.042 286.467 196.872 285.209 199.831 284.34C199.831 284.34 192.903 288.958 192.083 291.06C191.263 293.161 193.804 291.914 196.378 291.06C201.197 288.982 205.855 286.55 210.315 283.785C212.024 282.492 217.186 279.917 220.627 276.915L227.497 270.899C227.497 270.899 273.453 272.181 294.468 271.326C315.483 270.472 325.829 268.324 333.565 260.588C341.301 252.852 363.205 203.882 368.355 190.569C373.505 177.255 370.076 169.519 364.891 160.547" stroke="#022B3A" stroke-miterlimit="10"/>
<path d="M345.089 176.378L336.071 199.76C342.699 196.227 355.135 191.481 365.054 198.605C366.451 195.326 367.594 192.555 368.356 190.58C373.517 177.267 370.076 169.531 364.892 160.559" fill="#022B3A"/>
<path d="M345.089 176.378L336.071 199.76C342.699 196.227 355.135 191.481 365.054 198.605C366.451 195.326 367.594 192.555 368.356 190.58C373.517 177.267 370.076 169.531 364.892 160.559" stroke="#022B3A" stroke-linecap="round" stroke-linejoin="round"/>
<path d="M281.27 207.404C272.553 209.956 238.12 220.036 234.922 220.786C232.941 221.269 230.932 221.627 228.906 221.86C228.906 221.86 216.874 216.699 213.653 214.343C210.431 211.988 206.563 213.477 204.635 214.343C202.706 215.209 201.171 221.214 204.854 221.214C208.538 221.214 209.15 220.994 213.226 224.435C217.302 227.876 217.313 229.597 220.315 230.878C223.317 232.16 228.271 231.306 230.846 230.878C233.155 230.497 273.084 227.842 282.91 227.322C284.192 221.918 282.91 213.477 281.27 207.404Z" fill="white"/>
<mask id="mask5_6_841" style="mask-type:luminance" maskUnits="userSpaceOnUse" x="202" y="207" width="82" height="25">
<path d="M281.27 207.404C272.553 209.956 238.12 220.036 234.922 220.786C232.941 221.269 230.932 221.627 228.906 221.86C228.906 221.86 216.874 216.699 213.653 214.343C210.431 211.988 206.563 213.477 204.635 214.343C202.706 215.209 201.171 221.214 204.854 221.214C208.538 221.214 209.15 220.994 213.226 224.435C217.302 227.876 217.313 229.597 220.315 230.878C223.317 232.16 228.271 231.306 230.846 230.878C233.155 230.497 273.084 227.842 282.91 227.322C284.192 221.918 282.91 213.477 281.27 207.404Z" fill="white"/>
</mask>
<g mask="url(#mask5_6_841)">
<g style="mix-blend-mode:multiply" opacity="0.5">
<path d="M282.645 213.616L230.846 230.936C233.156 230.555 273.084 227.899 282.91 227.38C283.788 223.615 283.465 218.477 282.645 213.616Z" fill="#FFA62B"/>
</g>
</g>
<path d="M281.27 207.404C272.553 209.956 238.12 220.036 234.922 220.786C232.941 221.269 230.932 221.627 228.906 221.86C228.906 221.86 216.874 216.699 213.653 214.343C210.431 211.988 206.563 213.477 204.635 214.343C202.706 215.209 201.171 221.214 204.854 221.214C208.538 221.214 209.15 220.994 213.226 224.435C217.302 227.876 217.313 229.597 220.315 230.878C223.317 232.16 228.271 231.306 230.846 230.878C233.155 230.497 273.084 227.842 282.91 227.322C284.192 221.918 282.91 213.477 281.27 207.404Z" stroke="#022B3A" stroke-linecap="round" stroke-linejoin="round"/>
<path d="M195.178 221.433C195.178 221.433 190.663 224.008 189.405 227.01C188.146 230.012 190.686 229.158 191.552 228.523C192.418 227.888 196.067 224.862 196.067 224.862L195.178 221.433Z" fill="white" stroke="#022B3A" stroke-linecap="round" stroke-linejoin="round"/>
<path d="M196.471 219.274C195.626 219.816 194.957 220.593 194.547 221.51C194.137 222.427 194.003 223.444 194.162 224.435C194.589 228.084 198.457 233.453 198.896 231.306C199.335 229.158 196.471 219.274 196.471 219.274Z" fill="white" stroke="#022B3A" stroke-linecap="round" stroke-linejoin="round"/>
<path d="M201.84 216.052C201.84 216.052 197.753 217.126 196.471 219.274C195.19 221.422 197.326 230.67 198.838 231.306C199.159 231.45 199.509 231.519 199.86 231.507C200.212 231.496 200.556 231.404 200.867 231.239C201.178 231.074 201.447 230.841 201.654 230.556C201.86 230.271 201.999 229.943 202.06 229.597C202.487 228.084 201.84 216.052 201.84 216.052Z" fill="white" stroke="#022B3A" stroke-linecap="round" stroke-linejoin="round"/>
<path d="M207.001 213.905C207.001 213.905 201.621 213.905 200.986 216.491C200.351 219.078 199.265 230.232 200.339 231.952C201.413 233.673 203.133 233.026 203.988 230.878C204.842 228.731 207.001 213.905 207.001 213.905Z" fill="white" stroke="#022B3A" stroke-linecap="round" stroke-linejoin="round"/>
<path d="M211.886 193.894L203.065 234.065L204.45 239.192C204.471 239.27 204.512 239.342 204.57 239.4C204.627 239.457 204.698 239.499 204.777 239.52C204.855 239.541 204.938 239.541 205.017 239.52C205.095 239.499 205.167 239.457 205.224 239.4L209.081 235.566L215.524 194.968L211.886 193.894Z" fill="#022B3A"/>
<path d="M220.534 226.317C220.534 226.317 215.592 228.257 211.724 229.978C207.856 231.698 203.988 232.553 204.415 234.92C204.842 237.287 206.563 236.421 209.357 235.566C213.191 234.229 217.154 233.293 221.181 232.772C226.55 232.125 230.846 227.183 230.846 227.183" fill="white"/>
<path d="M220.534 226.317C220.534 226.317 215.592 228.257 211.724 229.978C207.856 231.698 203.988 232.553 204.415 234.92C204.842 237.287 206.563 236.421 209.357 235.566C213.191 234.229 217.154 233.293 221.181 232.772C226.55 232.125 230.846 227.183 230.846 227.183" stroke="#022B3A" stroke-linecap="round" stroke-linejoin="round"/>
<path d="M203.18 234.689L204.081 238.476C204.125 238.659 204.216 238.826 204.345 238.963C204.474 239.099 204.637 239.199 204.817 239.253C204.997 239.306 205.188 239.312 205.371 239.269C205.553 239.226 205.722 239.136 205.859 239.007L207.972 236.998" stroke="white" stroke-width="0.5" stroke-linecap="round" stroke-linejoin="round"/>
<path d="M203.076 234.065L207.637 213.72" stroke="white" stroke-width="0.5" stroke-linecap="round" stroke-linejoin="round"/>
<path d="M45.267 154.289L103.52 208.466" stroke="#022B3A" stroke-width="0.5" stroke-linecap="round" stroke-linejoin="round"/>
</svg>
