<svg width="65" height="64" viewBox="0 0 65 64" fill="none" xmlns="http://www.w3.org/2000/svg">
<g clip-path="url(#clip0_7_1585)">
<path d="M32.5003 0.75C14.8293 0.75 0.5 15.0767 0.5 32.7503C0.5 46.8888 9.66905 58.8839 22.3837 63.1152C23.983 63.4114 24.5701 62.421 24.5701 61.5758C24.5701 60.8128 24.5405 58.292 24.5267 55.618C15.6242 57.5538 13.7457 51.8424 13.7457 51.8424C12.29 48.1436 10.1926 47.1601 10.1926 47.1601C7.28922 45.174 10.4115 45.2148 10.4115 45.2148C13.6248 45.4406 15.3168 48.5125 15.3168 48.5125C18.1709 53.4046 22.8029 51.9903 24.629 51.1726C24.9162 49.1044 25.7455 47.6927 26.6606 46.8936C19.5529 46.0844 12.0812 43.3405 12.0812 31.0789C12.0812 27.5852 13.3313 24.7306 15.3783 22.4896C15.0461 21.6836 13.9507 18.4289 15.6883 14.0211C15.6883 14.0211 18.3755 13.161 24.4907 17.3012C27.0432 16.5922 29.7808 16.2366 32.5003 16.2245C35.2198 16.2366 37.9594 16.5922 40.5168 17.3012C46.6245 13.161 49.308 14.0211 49.308 14.0211C51.0498 18.4289 49.9539 21.6836 49.6217 22.4896C51.6735 24.7306 52.9151 27.5852 52.9151 31.0789C52.9151 43.3697 45.429 46.0759 38.3033 46.8682C39.4511 47.8612 40.4738 49.8086 40.4738 52.7941C40.4738 57.0758 40.4367 60.5218 40.4367 61.5758C40.4367 62.4274 41.0128 63.4252 42.6348 63.111C55.3426 58.8749 64.5 46.884 64.5 32.7503C64.5 15.0767 50.1728 0.75 32.5003 0.75ZM12.4851 46.3351C12.4147 46.494 12.1645 46.5417 11.9367 46.4326C11.7046 46.3282 11.5742 46.1114 11.6495 45.9519C11.7184 45.7882 11.969 45.7426 12.2006 45.8523C12.4332 45.9567 12.5657 46.1755 12.4851 46.3351ZM14.0592 47.7396C13.9066 47.8811 13.6082 47.8153 13.4058 47.5917C13.1965 47.3686 13.1573 47.0703 13.312 46.9267C13.4694 46.7852 13.7587 46.8514 13.9686 47.0745C14.1779 47.3003 14.2187 47.5965 14.0592 47.7396ZM15.1391 49.5366C14.943 49.6728 14.6224 49.5451 14.4242 49.2605C14.2281 48.9759 14.2281 48.6347 14.4284 48.498C14.6272 48.3612 14.943 48.4842 15.1438 48.7666C15.3394 49.056 15.3394 49.3972 15.1391 49.5366ZM16.9653 51.6178C16.7899 51.8112 16.4164 51.7593 16.1429 51.4954C15.8631 51.2373 15.7852 50.8711 15.9612 50.6777C16.1387 50.4838 16.5144 50.5384 16.7899 50.8001C17.0676 51.0577 17.1524 51.4265 16.9653 51.6178ZM19.3256 52.3204C19.2483 52.571 18.8885 52.685 18.526 52.5785C18.1641 52.4688 17.9272 52.1752 18.0003 51.9219C18.0756 51.6697 18.437 51.551 18.8021 51.6649C19.1635 51.774 19.4009 52.0655 19.3256 52.3204ZM22.0117 52.6184C22.0207 52.8823 21.7134 53.1012 21.3329 53.1059C20.9503 53.1144 20.6409 52.9008 20.6366 52.6412C20.6366 52.3746 20.9371 52.1579 21.3197 52.1516C21.7001 52.1441 22.0117 52.3561 22.0117 52.6184ZM24.6505 52.5173C24.6961 52.7748 24.4317 53.0392 24.0539 53.1097C23.6824 53.1775 23.3385 53.0186 23.2913 52.7631C23.2452 52.4992 23.5144 52.2348 23.8853 52.1665C24.2637 52.1007 24.6023 52.2555 24.6505 52.5173Z" fill="#022b3a"/>
</g>
<defs>
<clipPath id="clip0_7_1585">
<rect width="64" height="62.5" fill="white" transform="translate(0.5 0.75)"/>
</clipPath>
</defs>
</svg>