<svg width="65" height="64" viewBox="0 0 65 64" fill="none" xmlns="http://www.w3.org/2000/svg">
<g clip-path="url(#clip0_7_1581)">
<path d="M55.0634 54.025H45.5929V39.3399C45.5929 35.8381 45.5298 31.3301 40.6673 31.3301C35.7347 31.3301 34.98 35.1455 34.98 39.0849V54.0241H25.5095V23.8254H34.6012V27.9524H34.7285C35.6383 26.412 36.9531 25.1448 38.5328 24.2858C40.1124 23.4268 41.8978 23.0081 43.6988 23.0743C53.2976 23.0743 55.0674 29.3258 55.0674 37.4586L55.0634 54.025ZM14.8236 19.6975C13.7366 19.6977 12.674 19.3787 11.7701 18.7809C10.8662 18.1831 10.1616 17.3334 9.74549 16.3391C9.32934 15.3448 9.22028 14.2507 9.43215 13.1951C9.64401 12.1394 10.1673 11.1697 10.9358 10.4086C11.7042 9.64738 12.6834 9.12893 13.7495 8.91877C14.8155 8.70861 15.9206 8.81618 16.9249 9.22787C17.9292 9.63956 18.7876 10.3369 19.3917 11.2317C19.9957 12.1264 20.3183 13.1785 20.3185 14.2548C20.3186 14.9694 20.1765 15.677 19.9005 16.3373C19.6244 16.9976 19.2197 17.5975 18.7095 18.1029C18.1992 18.6083 17.5934 19.0093 16.9267 19.2829C16.2599 19.5565 15.5453 19.6974 14.8236 19.6975ZM19.5588 54.025H10.0785V23.8254H19.5588V54.025ZM59.7849 0.105874H5.31955C4.08334 0.092061 2.89211 0.564768 2.00771 1.42012C1.12332 2.27547 0.618115 3.44349 0.603027 4.66751V58.8201C0.617598 60.0448 1.12251 61.2136 2.00687 62.0698C2.89123 62.9261 4.08273 63.3997 5.31955 63.3867H59.7849C61.0242 63.4021 62.219 62.9298 63.1068 62.0735C63.9947 61.2173 64.503 60.0472 64.5201 58.8201V4.66361C64.5025 3.43716 63.9938 2.26781 63.1059 1.41248C62.218 0.557147 61.0235 0.0857901 59.7849 0.101965" fill="white"/>
</g>
<defs>
<clipPath id="clip0_7_1581">
<rect width="64" height="64" fill="white" transform="translate(0.5)"/>
</clipPath>
</defs>
</svg>
