<svg width="91" height="24" viewBox="0 0 91 24" fill="none" xmlns="http://www.w3.org/2000/svg">
<path d="M15.2633 3.5223L6.14676 8.84029L15.2633 14.1237V17.646L0 8.84029L15.2633 0V3.5223Z" fill="#CAD8DE"/>
<path d="M29.062 17.4734C27.7267 17.4734 26.5066 17.1856 25.4015 16.6101C24.3195 16.0345 23.4562 15.1942 22.8116 14.0892C22.19 12.9612 21.8792 11.5914 21.8792 9.97986C21.8792 8.39137 22.213 7.02158 22.8807 5.8705C23.5483 4.6964 24.4346 3.79856 25.5397 3.17698C26.6677 2.5554 27.8994 2.2446 29.2346 2.2446C30.5699 2.2446 31.6979 2.5554 32.6188 3.17698C33.5397 3.77554 34.2418 4.48921 34.7253 5.31799L34.5181 5.8705L34.8289 2.83165H37.7987V17.1281H34.5871V13.3986L34.9325 14.2273C34.8404 14.4576 34.6332 14.7568 34.3109 15.1252C34.0116 15.4705 33.5972 15.8273 33.0677 16.1957C32.5612 16.564 31.9742 16.8748 31.3066 17.1281C30.6389 17.3583 29.8907 17.4734 29.062 17.4734ZM29.9253 14.8144C30.731 14.8144 31.4562 14.6647 32.1008 14.3655C32.7454 14.0662 33.2749 13.6518 33.6893 13.1223C34.1267 12.5698 34.426 11.9137 34.5871 11.154V8.35683C34.403 7.66619 34.0807 7.06763 33.6202 6.56115C33.1598 6.03165 32.6073 5.62878 31.9627 5.35252C31.3181 5.05324 30.6044 4.9036 29.8217 4.9036C28.9699 4.9036 28.1871 5.11079 27.4735 5.52518C26.7598 5.93957 26.1843 6.51511 25.7469 7.2518C25.3325 7.98849 25.1253 8.8518 25.1253 9.84173C25.1253 10.7626 25.344 11.6029 25.7814 12.3626C26.2188 13.1223 26.8058 13.7209 27.5425 14.1583C28.2792 14.5957 29.0735 14.8144 29.9253 14.8144Z" fill="#CAD8DE"/>
<path d="M43.4598 15.2978C43.4598 14.7914 43.644 14.3655 44.0123 14.0201C44.4037 13.6518 44.8296 13.4676 45.29 13.4676C45.7044 13.4676 46.0958 13.6518 46.4641 14.0201C46.8555 14.3655 47.0512 14.7914 47.0512 15.2978C47.0512 15.8504 46.8555 16.2993 46.4641 16.6446C46.0958 16.9669 45.7044 17.1281 45.29 17.1281C44.8296 17.1281 44.4037 16.9669 44.0123 16.6446C43.644 16.2993 43.4598 15.8504 43.4598 15.2978Z" fill="#CAD8DE"/>
<path d="M61.0357 17.4734C59.9537 17.4734 58.9062 17.2201 57.8933 16.7137C56.9033 16.2072 56.1321 15.5281 55.5796 14.6763L55.7868 13.6748V24H52.6098V2.62446H55.3724L55.8213 6.28489L55.476 5.28345C56.1666 4.40863 57.0415 3.68345 58.1005 3.10791C59.1594 2.53237 60.3451 2.2446 61.6573 2.2446C62.9925 2.2446 64.1897 2.56691 65.2487 3.21151C66.3307 3.85611 67.1825 4.75396 67.8041 5.90504C68.4256 7.05612 68.7364 8.40288 68.7364 9.94532C68.7364 11.4878 68.4026 12.823 67.735 13.9511C67.0674 15.0791 66.1465 15.954 64.9724 16.5755C63.8213 17.1741 62.5091 17.4734 61.0357 17.4734ZM60.4141 14.918C61.335 14.918 62.1753 14.7108 62.935 14.2964C63.7177 13.859 64.3393 13.2719 64.7997 12.5353C65.2602 11.7755 65.4904 10.9237 65.4904 9.97986C65.4904 9.01295 65.2717 8.16115 64.8343 7.42446C64.3969 6.66475 63.8098 6.06619 63.0731 5.62878C62.3594 5.19137 61.5537 4.97266 60.6558 4.97266C59.8271 4.97266 59.0789 5.13381 58.4112 5.45611C57.7436 5.77842 57.1911 6.22734 56.7537 6.80288C56.3163 7.3554 56.0055 8 55.8213 8.73669V11.1194C55.9364 11.8561 56.2127 12.5122 56.6501 13.0878C57.0875 13.6633 57.6285 14.1122 58.2731 14.4345C58.9407 14.7568 59.6544 14.918 60.4141 14.918Z" fill="#CAD8DE"/>
<path d="M75.2207 14.1237L84.3372 8.80576L75.2207 3.48777V0L90.5185 8.80576L75.2207 17.646V14.1237Z" fill="#CAD8DE"/>
</svg>
